<mxfile host="app.diagrams.net" modified="2021-02-16T15:02:18.832Z" agent="5.0 (Windows)" etag="lWiDFoYTNZzDRxBb0u1w" version="13.9.7" type="github">
  <diagram id="mfgYwBa5Ud0geMCrauwH" name="Page-1">
    <mxGraphModel dx="1258" dy="1151" grid="1" gridSize="10" guides="1" tooltips="1" connect="1" arrows="1" fold="1" page="1" pageScale="1" pageWidth="1169" pageHeight="1654" math="0" shadow="0">
      <root>
        <mxCell id="0" />
        <mxCell id="1" parent="0" />
        <mxCell id="20WILuZ4rldSZoYa5nqy-4" value="&lt;h1&gt;There&#39;s no place like home&lt;br&gt;&lt;/h1&gt;&lt;p&gt;The participant&#39;s physical home space represents the non-fictional world.&lt;br&gt;&lt;/p&gt;" style="text;html=1;strokeColor=none;fillColor=none;spacing=5;spacingTop=-20;whiteSpace=wrap;overflow=hidden;rounded=0;" vertex="1" parent="1">
          <mxGeometry x="340" y="160" width="330" height="120" as="geometry" />
        </mxCell>
        <mxCell id="20WILuZ4rldSZoYa5nqy-6" value="" style="shape=image;html=1;verticalAlign=top;verticalLabelPosition=bottom;labelBackgroundColor=#ffffff;imageAspect=0;aspect=fixed;image=https://cdn1.iconfinder.com/data/icons/virtual-reality-82/32/Virtual_Reality_augmented_reality_vr_ar-128.png" vertex="1" parent="1">
          <mxGeometry x="50" y="360" width="220" height="220" as="geometry" />
        </mxCell>
        <mxCell id="20WILuZ4rldSZoYa5nqy-7" value="&lt;h1&gt;Fiction bleeds into Fact&lt;br&gt;&lt;/h1&gt;&lt;p&gt;Fictional objects bleed into the participant&#39;s realword space through augmented reality and provide clues about a different reality.&lt;br&gt;&lt;/p&gt;" style="text;html=1;strokeColor=none;fillColor=none;spacing=5;spacingTop=-20;whiteSpace=wrap;overflow=hidden;rounded=0;" vertex="1" parent="1">
          <mxGeometry x="340" y="400" width="330" height="120" as="geometry" />
        </mxCell>
        <mxCell id="20WILuZ4rldSZoYa5nqy-9" value="&lt;h1&gt;Through the Looking Glass&lt;br&gt;&lt;/h1&gt;&lt;p&gt;The participant is able to peer into a fictional space from within their own realworld space.&lt;br&gt;&lt;/p&gt;" style="text;html=1;strokeColor=none;fillColor=none;spacing=5;spacingTop=-20;whiteSpace=wrap;overflow=hidden;rounded=0;" vertex="1" parent="1">
          <mxGeometry x="340" y="692" width="330" height="120" as="geometry" />
        </mxCell>
        <mxCell id="20WILuZ4rldSZoYa5nqy-10" value="" style="shape=image;verticalLabelPosition=bottom;labelBackgroundColor=#ffffff;verticalAlign=top;aspect=fixed;imageAspect=0;image=data:image/png,iVBORw0KGgoAAAANSUhEUgAAArwAAAK8CAYAAAANumxDAAAABHNCSVQICAgIfAhkiAAAAAlwSFlzAAALEwAACxMBAJqcGAAAIABJREFUeJzs3Xe8JWV9+PHP3crusvQO0lw6AipIURS7YiyosURFYoPYokaN0SQWjBpL/KmI0aigRqOxd1GkKh0CqIDSpfeyLGXb/f3xnOuee/eWM3Nm5jvl8369vq+Fe9p35sxz53ufeZ5nQJIkSZIkSZIkSZIkSZIkSZIkSZIkSZIkSZIkSZIkSZIkSZIkSZIkSZIkSZIkSZIkSZIkSZIkSZIkSZIkSZIkSZIkSZIkSZIkSZIkSZIkSZIkSZIkSZIkSZIkSZIkSZIkSZIkSZIkSZIkSZIkSZIkSZIkSZIkSZIkSZIkSZIkqVZGohOQpBaYA2wCbNz372JgHjC/92//fwMsBx7q/dv/30uBO4Dbe3EHsLKi7ZCkVrLglaTpzQYeBuwAbD/h3y2BTYH1Ss7hHlLxeyNwDXB1379XA9cDq0rOQZIay4JXktbYFthrQuxE6sGts5XA5cDFE+LPkUlJUl1Y8Erqqo2Bg4DHAgcAewMbhGZUvLuBi4Azgd8CZwB3hmYkSQEseCV1xfbAIaQC97HArnTvd+AocBnwG1IBfApwbWRCklSFrv2yl9Qd6wBPAJ4BPBPYJTad2roM+HkvTiNNnpOkVrHgldQmWwGHAYeSenMXhmbTPMuAk4GfAd8Hbo5NR5IkSQCbAa8HTiWtVDBqFBKrSMXv35FWopAkSVKFNgReC5xIWqEgujhse6wEfgW8hvZN7JMkSaqVg4GvAQ8QXwR2Ne4HvgI8bobvSpIkSQPaBHgbcCnxxZ4xPv4AvBXYaMpvT5IkSVPah9Sb+yDxhZ0xfTwIfJW0lrEkSZJm8Ezg18QXcUa++BXw9LW+VUmSpI6bB/wt8DviCzajmLgIOByYiyRJUofNBV4H/Jn4As0oJ64lre4wB0mSpA6ZDRwBXEV8QWZUE1eQenxnIUmS1GKzgJeSbmcbXYAZMXEp8GK806ckSWqhxwMXEF9wGfWI83EtX0mS1BLbAd8mvsAy6hnfArZFkiSpgRYBH8S7ohkzx/3A+4GFSJIkNcQLgeuJL6SMZsV1wGFIkiTV2FbA94kvnIxmx3eBLZEkSaqREdJ6uncTXywZ7Yi7SOv3SpIkhdsJOIX4AsloZ5wELEGSJCnIUaQJR9FFkdHuWAa8FkmSpAptAvyQ+ELI6FZ8D9gYSZKkkj0NuJH44sfoZtwAPBlJkqQSzAP+A1hNfNFjdDtWAx8D5iJJklSQrYEziS90DKM/foPLl0mSpAI8AbiZ+OLGMCaLm4DHIUnTmB2dgKRaexvwNWC96ESkKawLvIK0BvQ5wblIkqQGWQj8D/G9d4aRJb4GLECSJhiJTkBS7WwB/BjYNzoRKYezgWcDt0UnIqk+LHgl9dsd+BmwXXQi0hCuAg4F/hidiKR6mBWdgKTaeCLwWyx21Xw7AmcAB0cnIqkeLHglARwOnABsEJ2IVJCNgF8BL41ORFI8V2mQ9E7gs/j7QO0zB3g+cC9wVnAukgJ5gpO67QPA0dFJSCUaAZ4OrAJOC85FUhALXqm7PgG8KzoJqSJPIi1ZdmJ0IpKqZ8Erdc8I8DngTdGJSBV7HLAJ8IvoRCRVy4JX6pZZwPHAq4PzkKI8BtiWtNb0aHAukipiwSt1xwjwReCI4DykaI8EtgR+Ep2IpGpY8Erd8SngqOgkpJp4NLAe8MvoRCSVz4JX6oYPAW+PTkKqmQNJw3xOCc5DUskseKX2ew/w3ugkpJp6AnA/6c5sklrKgldqtzcAH49OQqq5pwI3AedHJyKpHCPRCUgqzXOA7+MtxKVBrAKeDfw8OhFJxbPgldppX+BUYGF0IlKD3AccDFwYnYikYlnwSu2zHXAWsEV0IlID3QDs3/tXUkt4qVNql/WBn2GxK+W1NfBTYHF0IpKKY8Ertcds4DvA7tGJSA23N/AtPEdKreEqDVJ7/DvwiugkpJbYiXSOPDk6EUnDcwyv1A4vBL4dnYTUMqPA84AfRSciaTgWvFLz7QacA6wbnYjUQvcA+wGXRyciKT/HJ0nNtpi01q7FrlSO9YHvAYuiE5GUnwWv1GzHAbtEJyG13J7Af0UnISk/J61JzfU64J3RSUgd8QjgGuCi4Dwk5eAYXqmZdgEuwDupSVVaCuwDXBWdiKRsHNIgNc9c4OtY7EpVW0xqe3OiE5GUjUMapOb5N+BF0UlIHbVN799TIpOQlI1DGqRmeQJwEl6dkSKtAh4PnBGdiKTBWPBKzbEI+D2wfXAekuAK0kS2B6MTkTQzxyFJzXE0FrtN9hBwN+lGBkuB5cCKCTFK+r3cH/NI6yyvSxpDurj3M8VaArwPeFdwHpIGYA+v1Az7AWfiuPs6upfU23cVcANwE3BjX9xBKnIfKvAz5wGbAJtOiG2AbftiSxz+UqaVpLZ5YXQikqZnwSvV31zgPGCv6EQ67gbSGqwXA5eSitzLgdsik5rBXGAH0jJ2Y7Er6VL8+oF5tcn5wP6kcb2SasqCV6q/9wAfjE6iY64nTUg6i9R7dzGpp7ZNdiCtKbsP8EjgAFIvsbJ7B/Dx6CQkTc2CV6q3nYDfAfOjE2mxUdI+PolU5J5JKni7aCfgoF48Dtg9Np3GuJ90++GroxORJKmJfkwqyIxi4xrgi8BLsFdzOlsCrwCOJ/0REP291Tm+k28XS5LUbU8n/iTellgNnA28G9gjy5egcR5BGmJzNmmfRn+vdYsn5N+1kiR1zxzgEuJP4E2OVcCJwFHAVtl2vwawBfA60j5eRfz3XYf4P1wVQ5Kkgb2J+JN3U+Mc4C2ky/GqxhbAm0njn6O//+h47ZD7UpKkTtiItCJA9Im7SXED6cYcS3LsbxVrJ+AjpPWIo4+LiLgFWG/ovShJUst9kviTdhNiJWlS37Pxhhx1NAd4HvBTujfe9yMF7D9Jklpra+BB4k/YdY7bSL252+Tcx6reTsBnSLdUjj5+qohlwOaF7DlJklroWOJP1nWNS0iTpBbk3ruKtj7wNrqxxNknC9pnkiS1yvbAQ8SfqOsWpwLPxBvltMk80h8vVxJ/fJUVD5Cu2EiSpD5fIv4kXac4Edc1bbvZwMuBPxF/vJURxxa3qyRJar4lwAriT9B1iBNIt7ZVd8whrZd8I/HHX5HxELBdgftJkqRG+zLxJ+foOAs4ZMj9qGZbCLwLuIf447Go+Fyhe0iSpIbakm6P3b0MeP7Qe1FtshlpiE8bljO7H9i02N0jSVLzfIj4k3JE3AG8HtfQ1dT2Bc4g/lgdNt5X8H6RJKlRFgF3En9CrjJWkS7zblzA/lP7jZBu13sX8cdu3rgVWKfoHSNJUlO8ifiTcZXxG2CfQvacumYL4NvEH8N548jid4kkSfU3m3avQ9ofd5N66VxLV8N6LnAz8cd01vgjHv+SpA46jPiTcBXxPdLEPKkom5COq+hjO2s8q4ydIUlSnf2c+BNwmXETrr6gch1Bs5Yw+0Epe0GSpJrajjR5K/oEXFZ8j9QLJ5VtR+B84o/5QWIFXu2QJHXI+4k/+ZYR95J63aQqzQc+S/zxP0i8u6R9IElSrcwGriP+xFt0/AbYocD9JGX1YmAp8W1hurgSJ69Jkjrgr4g/6RYZq4EPA3OK3ElSTnsCVxHfLqaLp5S29ZIk1cT3iT/hFhW3A88sdvdIQ9sYOIn49jFVfLO8TZckKd76wEPEn3CLiN8C2xS7e6TCzAGOJb6dTBbLSHdZlCSplV5J/Mm2iPgcMLfgfSOV4R9Jw26i28zEeHGZGy1JUqSfEn+iHSaWA0cVvlekcr2MdOxGt5/++G6pWyxJUpCNqN9JN0vcCjy+8L0iVePJ1GsFhweAxaVusSRJAV5N/Ek2b1wCbF/4HpGqdQBwN/HtaSxeVu7mSpJUvROIP8HmiVOBDUvYH1KER5FWF4luV6PAD0veVkmSKrWYZg5n+CbpLlZSm+wJ3Ex8+7ofWKfkbZUkqTLPI/7kmjU+gXeEUns9gnr09D6j7A2VJKkqnyf+xJol/qWc3SDVyqOIH9P7qdK3UpKkilxLfBE7aLy1pH0g1dGBxK7e8MfyN1GSpPLtTnwRO0isAl5b0j6Q6uwpxI6x37H8TZQkqVz/QHwxO0ixe3hZO0BqgJcTd0e2N1SwfZIklaruy5GtJq0RLHXdu4hpgy5PJklqtNnAvcQXtdOFtwqW1vgc1bfB23FFFElSg+1DfEE7Xby5vE2XGmkOcBLVt8Xdqtg4SZLK8Abii9qp4l9L3G6pyTYGrqTa9viaSrZMkqQSfIP4wnay+GyZGy21wB5UOxzpuGo2S5Kk4tVx/d1vA7PK3GipJf6a6trlnyraJkmSCvUw4ovbiXEyML/MjZZa5tNU1z43q2ibJEkqzGHEF7j98Udgw1K3WGqfecDZVNNGn1XRNkmd42VNqTx7RyfQ5y7g2b1/JQ1uOfAiqmk7j6jgM6ROsuCVyrNXdAI9K4EX4hhBKa9rgddX8Dl1+Z0hSdLAriB+GMMocGTZGyp1xNcpt63+vrpNkSRpeItIt+yNLna/WPaGSh2yAfBnymuvK0hjhiVJaoT9iS92zwfWKXtDpY55EuX+MbtPdZsidYdjeKVyRE8+uYs0bvfB4DyktjkJ+FKJ7x/9u0NqJQteqRw7BX72KPAK4OrAHKQ2eztwY0nvvaSk95U6zYJXKscOgZ/9H8BPAz9fart7KG/VhsjfHZIkZXIOceN2nfQiVeM7FN+GT690CyRJGsJtVF/s3gfsXMXGSQJgW2AZxbbj6yrdAkmSclpETO/ua6rYOEnj/DPFtuNVeJVGktQAe1J9sfuDSrZM0kTzgcsptj1HTnqVWslJa1Lxtqv48+4Ejqr4MyUlDwFvK/g9q/4dIrWeBa9UvM0q/ry3ADdX/JmS1vgxcFqB71f17xCp9Sx4peJtUuFn/RT4WoWfJ2ly7yzwvar8HSJ1ggWvVLyNK/qce4EjK/osSdM7m7RMWREseKWCWfBKxavqZPWvwA0VfZakmb0bWFnA+1T1R7PUGRa8UvGqOFldCBxTwedIGtzlwNcLeB97eCVJtXca5S5Btho4sLKtkZTFElIv7zBt/MTKs5Zazh5eqXgblfz+XwbOLPkzJOVzBfDfQ75H2b9DJEka2pWU17t7D7BpdZsiKYeHM1wv76XVpyy1mz28UvHml/jeHwFuK/H9JQ3vSoZbsaHM3yFSJ41EJyC10K2U0wt7HbAz8GAJ763yrEPq8du+F9uQJiVtTLp0vQCY1wuA5b14ALgLuL0XNwDX9OLK3uOqr0cD5+V87Q2k40RSQeZEJyC10LyZn5LLu7HYrbuFwGNIkwofCexFmsQ0u+DPWU0aK3oxacWOM0nrwC4r+HOU3/nAycATc7zWHl5JUu09QPFjd8/HKzJ1NBt4HPBBUsG5gnJX6JguVgDnAh8CDsYOjTp4JvnH6kuSVGurKL6YObTSLdB05gLPAr5CGnIQVeDOFHeTVgt4NuVdddDMLiX7d+eVHElSrc2i+MLFJcjqYR/gs8CdxBezWeMu4D9J40pVrTeT/ftaHZKpJEkZFN3D+/Rq01efucDhwDnEF61FxQXAq3CcaFXWB+4j23dUxO2JJUkq1f0UV5z8puLclawHvIs0Wz66QC0rbgLeA2xQ0D7T1L5Atu/GIQ2SpNor8pL3UyvOvesWAf8E3EF8QVpV3AX8M7C4gP2nyT2GbN/J0pg0JUka3I0UU4hcUHXiHTYbOAq4hfgCNCpuA95I8UuoCXYj+x8hkiTV2lUUU4C8tOrEO+oQ4CLiC866xO+BpwyzQ7WWR5PtO7gpJk1JkgaXZxmiiXENrqNatg2B44gvMOsaXyPdDU7DezzZ9v3lMWlK7TUrOgGphYqYcPJJnKldpsNIf5gcEZxHnb2ctI9eHJ1ICyzM+Pz7SslCkqQCnclwPWv3AOtWnnU3LAK+RHzvadPia6SVK5TPS8m2v0+PSVNqL3t4peINO8P6q9jDU4Z9gAtJa9Aqm5eT9t2+0Yk01EYZn++thaWCWfBKxbtlyNd/rpAs1O9w4AxgSXQiDbYDaV3oV0cn0kBZx0LfUUoWUodZ8ErFu3mI154KXFJUImI28CngK8CC4FzaYD7wRdIfZU6qHFzWHt7bS8lC6jALXql4wxS8xxaWhRYBPwDeHJ1ICx0F/ARvVjGorTI+34JXKpgFr1S8vEMa7gC+X2QiHbYpqbf8r6ITabGnk4Y4bBmdSANY8ErBLHil4uXt4f0msKLIRDpqK1Kx++joRDpgL+A0YNvoRGoua8F7QylZSJJUoD3Jt/TTYyKSbZltgSuIX8ara3EtTgicygjwANn2514hmUqSlMGmZC8YLg3JtF22wmI3uui1p3dtW5N9X2ad5CZpBg5pkIp3O9mHJnytjEQ6ZFPgRODh0Yl02LbAr4EtohOpmR0zPv8B4M4yEpG6zIJXKt4ocFXG11xRRiIdsRD4GbBbdCJiCfALXL2h3w4Zn5/1d4ekAVjwSuX4Y8bn715KFu03C/gfvANYnewN/C+u0zsm69jmK0vJQuo4C16pHJdlfP4epWTRfh8HnhOdhNbyDODT0UnURNa27dUeqQT+BS6Vw4K3fC8D3hqdREX+DJwCnAf8gTRB7HbSeE9Iwzo2A7YnHUuPAQ4hdjzt3wHnAscF5lAHWa/eWPBKkhrjILLNyl4OzA3JtJn2ApYRvzJBmXET8GHyL1E1Qip8P0WaBBWxDQ/Q7fWQ55EmsGbZZ4dEJCpJUh4bkb04sJd3MAtJPejRBWlZcQVwBKlYKspC4E2kGxpUvT1X0t1JbHuTfX9tEpKpJEk53Uq2E92LYtJsnM8TX5SWEcuAt1NuT/9C4GjgoYq37fgSt6nOXkW2/ZT3Lo2SJIU5nWwnu4/FpNkozya+MC0jziD7eq3DeATwuxK2Y7r460q2rF6OIds+OjEmTUmS8vsM2U52v4lJszHWJ+aSfNnxWWLGby8EvpEj37xxC927g9gZZNtHn4hJU5Kk/F5OtpPdAzhxbTptHMrwzkL3UHYjwEepbnuPr2Sr6mEeqU1n2T8vDclUkqQhLCF7QbB/SKb1dxCwmvgCtcj4h0L30HA+THXb/cSKtinaAWTfNzuFZCpJ0pCyTlx7S0yatTZCWs81ukAtMv690D1UjC9TzbZfBMyuaJsivY1s++Uu0rEuSVLj/JhsJ71vxaRZa0cQX6AWGT+nnne5nAecRTX74MiKtinSd8m2T34Zk6YkScN7D9lOetfHpFlb65D2SXSRWlTcAmxa6B4q1o7AUqrZD4sq2qYII8AdZNsn7w3JVJKkAjyZ7MXAniGZ1tNbiC9Si4wXF7t7SvEmqtkX/1jVBgV4JNn3x5NDMpUkqQCLgVVkO/G9PSTT+llIWog/ukgtKk4udveUZjbVrNF7O+29A9vbybYvVtDuHm9JUgdcQLaTn4vPJ28mvkgtMg4sdveU6nlUs0/eUdUGVewEsu2Hs2LSlCSpOB8i28nvQeztmQ1cRXyRWlScXuzuKd0IcCnl75fraN/a04tIbTjLfjg6JFOpQ+o4U1hqm59nfP58urNW6VQOA3aITqJAx0YnkNEo8J8VfM42wEsq+JwqPZXUhrP4VRmJSJJUpTnA3WTr8TkmJNP6OIX4Xtmi4l7SahNNsxmwkvL3z9lVbVBF/ots27+U9vVyS5I66jtkv9Tb1UXodya+SC0y/rfY3VOp06lmHz2iqg0q2SzSkmtZtv3HIZlKHeOQBqkaWYc1bAM8toxEGuA10QkU7NfRCQyhqkvtr63oc8r2eFLPeBYWvJKk1tia7L1enwnJNNYs4Ebie2WLjL0L3UPVeirV7KPbSEN/mu4Ysm33amCrkEwlSSrJxWQ7Gd5MWq2gS55AfIFaZKyg2eMzt6C6ffW0irapLLOAG8i2zeeFZCp1kEMapOr8KOPzNwcOKSGPOmvCnciyuJ5U9DbVzcD9FX1W07/7J5K9t/aHZSQiSVKkPcje6/WFkEzjZO0hq3u04YYCVa2HfDvN7oQ5nuzbvGtEopIkle0isp0Q7yD7mp5NtTfxBWrR0Ya75mU9ZoeJ/SvapqItJC0vlmVbLw7JVOqoJv81LTXRNzI+fyPghWUkUkPPjE6gBKuiEyhAldvQ1GPgBcC6GV/T5OXqJEma1rakmdlZeoJOC8m0eicS3yNbdJxS5A4KcgnV7a/fVrRNRTuN7Nu6U0imkiRVJM9i/ruHZFqdOcB9xBeoRUcbLltnvZHCMPEgzRvCsyvZt/OMkEylDnNIg1S9rMMaAI4sPIt62RtYFJ1ECR4WncCQ1gE2rfDz5gP7Vfh5Rchz04yvFp6FJEk1szGwnGw9QncBCyKSrcgbie+NLSs2L3A/VW0vqt9f76xky4qxiNQ2s/ZibxiRrNRl9vBK1bsD+EnG12wAvKSEXOpin+gESvTo6ASGEJF7k+5M90pS28ziB6QiWZKk1nsS2Xu+fg+MRCRbgXOI74ktKz5c4H6q2nFUv79+V8mWDW8EuIzs23dIQK6SJIX5A9lPls8JybRcs4BlxBemZUVTJ67NIt1prer9tZxm3I75ULJv26UhmUqSFOj1ZD9htnF29zbEF6Vlx26F7a3qPJG4/bWkgu0bVp7VVt4akqkkSYHWBe4h+0nz8RHJluhg4gvSsuPjhe2t6nyNuP311Aq2bxiPJfs23Uf28b6SJLXCp8l+4vxZSKbleQXxBWnZcRewuKgdVoGtgYeI21+vK38Th/ITsm/TMSGZSpJUAzuT/c5rozRrJvtM3kV8QVpF/HNRO6wCxxC7r95f/ibmti/Zt2c13llNktRxvyD7CfRHIZmW4+PEF6NVxL3AFgXtszLtQvZ1oouOz5a+lfn9jG63V0mScjmEfEXB4wJyLcNxxBejVcX/FrTPyjICnEz8fvpm2Rua04Hk256DIpKVJKluTiX7SfS3IZkW74fEF1hVxt8Us9tK8Tbi988o8MuyNzSnk8i+LaeGZCpJUg3luRHFKPDciGQLdgLxBVaVsRTYs5A9V6yDiR/KMBanl7yteTyLfNvytIhkJUmqq9PIfjL9AzA7ItkCnUx8gVV1XEtaCaEudgFuJ36/jMXZ5W5uZrNJdzrMuh3nRiQrSVKdPZl8xcGrI5It0G+JL7Ai4lJgqwL237B2Aq4jfn/0x4WlbnF2ryHfdjwzIllJkuruN2Q/qd4CbBiRbEG6WvCOAleRelej7EfM7YObVPBuANxK9m1oyxh7SZIK91TyFQifi0i2ICcTX2BFxt3EjMX+W+D+HPlWEXUa0vAZ8m3DkyKSlSSpKU4h+8l1Fam3rom6Nmltqvg8sN6Q+3IQm5GWR4ve3unitNK2Ppu9gJVkz//EiGQlSWqSfUgFbNaT7HnArIB8h/UD4gususTNwGuBOUPt0cktAP6B1KMcvZ0zxQklbH9Ws4AzyZ77Ktp1J0RJkkrzBfIVCm+ISHZIXya+wKpbXA28hWLGZm8BvBu4qQbbNWj8TwHbPaw3kC/34yKSlSSpiTYD7iH7yfZu6jHzP4uPEl9g1TUeJN2Y47Wk1RQGMQLsDryRdAOHPJfko+MzA25rWbYmX/tbRr2Wm5PUU8ZlM0nDuxU4GvhYxtetD3yJZi2HdHt0AjU2H3hOLyD9QXMJaR3f20iTzkaARcCmwA7AbsDiyjMt1h3Bn/8F8o2n/jBwQ8G5SJLUavOAP5Gvh+yogHzz+hviexSNekXk2tKvmiav6eJy0h8okiQpo2eT7+R7H/DwgHzzOIj4AsuoV0Qt6bUt+YYyjAKHBuQrSVJr/Ix8J+Df0IxVG7YivsAy6hU7Ur1ZwEk58/1BQL6SJLXKw4B7yXci/seAfLMaAZYSX2QZ9YgHiZlf8k85870HJ6pJklSII8l3Ml4O7B+Qb1Z51js12hn/R/UeA6zIme/rA/KVJKmVRoBfk++E/Gdg4+pTzuTzxBdaRj3iK1RrA+DKnLn+ltQ2JdVcE8b3SUon19eQ1vnM6mHA16l3e4/o1VM9XVjhZ40AXyXfmOEHWLOigyRJKtAbyd9z9t6AfAe1N/E9i0Y9osohOHnH7Y4Cf19hnpIkdcoIcCr5TtCrgKdXn/JAZpFuqhBdbBmxcT8wl2o8lfx3oTsZhzJIklSqh5N/1YbbiFnyaRA/J77gMmLjZKqxBLgzZ453A9tXlKekgtR5TJ+kyV0JvDbnazcBfkqaqFM3v4pOQOGqOAbWA34EbJjz9a8DriksG0mSNK3Pkb8n7SSqu3Q8qN2I72E0YuORlGsO+W/kMgr8V8n5SZKkCeaTVjfIe/I+vvKMZ3YN8UWXERM3Uf642C8Mkd8lwMKS85MkSZNYQrrTU96T+L9Un/K0Pkl84WXExLGUa5gVGZaSrkBIkqQgL2K4QuMV1ac8pQOIL7yMmHgC5XklsHqI3F5cYm6SJGlAx5L/ZL4CeH71KU/pGuKLL6PauJHyJlE/l/zLj40CnyopL0mSlNE84DTyn9QfAg6tPOvJfYD4AsyoNj5KOQ4h3REtb14nU7/JnZIkddrGwBXkP7k/ADyp8qzXth3pJhnRRZhRXexM8R5LGnubN6crSW1KkiTVzC7kX1B/FLgPOKjyrNf2C+KLMKOaOJXiHUT+m7OM9l67Rwl5SZKkgjwRWE7+k/09pMljkZ5FfCFmVBMvpFgHMNzKJStJx58kSaq5IxiuCLkPeErVSfcZAS6dJC+jXXElxU5WeyLDDWMYBY4sMB9JklSyDzPcif9B4LDKs17jNVPkZbQn3kBxDmW4CWqjwIcKzEeSJFVgBPgGwxUAK0lrmEaYB1w7QI5GM+MGYB2K8RKGG8YzCnyV8u/0JkmSSjAH+D7DFQKrgb+vOvGe1w6Yo9G8KKp3920Md1OJUeAHpLYiSZIaah7wM4YvUD5KeTcHmMochltqzahnXEs6LocxAny8gFx+DcwfMhdJklQD65BO7MMWBz8E1q049xcUkLdRr/gbhrMQ+E4BeZxJ9cezJEkq0SLgdIYvEi4Ctq0491MKyNugBU8mAAAgAElEQVSoR5zBcLYEzi0gj7OA9YbMRZIk1dB6wDkMXyzcDBxYYd57AysKyNuIjVXAfuS3L3BdAXmcDaw/RB6SJKnmNqSYHrIHSev9VuWjBeRsxMan1/pWB/dq0jE3bA5nYbErSVInLAZOpJgi5jjSmMqyLcAJbE2Oa8k3XnY+8IWCcjgpZw6SJKmh5lPMxJ9R4A/A7hXk/ATSZfHo4s3IFquBp03yfc5kCXB+QTn8mOLW/ZUkSQ0yC/hPiikollHNEId/Lyhfo7r4f5N+k9N7KXBvQZ//37jOriRJnXc0xRU3x1PuZeO5wHkF5muUGxeTbZ3bxcCXC/z8j+Id1CRJUs+bGf6OVWNxDfDkEnPdEbizoFyN8uIeYJcpvsPJPB64uqDPXkU6piVJksb5a9LQhCIKjtXA5yivt/dQiivQjeJjNfC8Kb+98RYAH6O48dnLgOcP+NmSJKmD9qa4XrbR3ns9qaRc31NgnkaxcfQ031u/xwN/KvBzrwMeOeBnS5KkDtsEOJniipCx3t4y7mx1XIF5GsXEN5h53Ox6wLEU20t/NrDFDJ8rSZL0F3OAz1BsIXQ9xV9qnktxawobw8fpzDxJ7QXADQV/7pdw2TFJkpTTq4GHKLY4+SGwqMAcF5N696KLva7HBcAG03xPi4AfFfyZDwGvm+YzJUmSBnIgaWxkUUXKKorvjdsQuKjAHI1scQmw6Qzf0QKKvXHItcD+M3ymJEnSwDYEvk0xhcqfSspxU+DCgnI0shW7Ww3w/QBcXtBnfp90TEqSJBXuVcBShitWvldifhvi8IYq4wJm7tnt9/0hP+9B4I0ZPk+SJCmXJcA55C9aPlByfotxIlsVcSqw/oDfyZgPDvF5F5OWzZMkSarEXOBD5BuT+eKK8ivyFrXG+PhvYN7A38YaL8nxWatIN6bIcotiSZKkwjyT7AXMHhXm926KnSjV9VgNvC/LFzDBnjk+82lDfJ4kSdLQ9iNb8bKc1PtapWcAd2bM01g77gaenXHfTzSXdAxk+dx9hvxMSR03KzoBSY23Z8bn/wlYUUYi0/gF8GjgvIo/t00uBPYFfjzk+6wgrdSQRdZjTJLGseCVNKyswxN+X0oWM7saOAj4MOmyvAYzCnyctN7tFQW95x8yPr/KITCSWsiCV9Kwsva+RRW8kHoX3w0cQvZexi66CngK8A7SMISiZD0G7OGVJEmhrifbeMzDYtJcyzqk3t4VxI+NrVusJK2KsDD33p3eCzLmc3VJeUiSJM1ofbIXUzuFZDq1PXHN3v44mfLXut0lY06rgUUl5yRJkjSpx5KtcLmf+g6lei7wR+ILzqi4gtTzWoXZpDumZcnvMRXlJkmSNM6RZCtaLohJc2CzgSNIY1ejC9Cq4hrg1cCcofdeNhdmzPNVFecnqUXq2tMiqRmaskLDoFYBx5MuuR8B/C4ymZJdQip0dwa+RBq3W6Wsx4IrNUiSpBAnka2X7h9j0hzK00lrz64kvjd22FgF/Bx4FjBS5E7K4Z/IlvsJMWlKkqSuu4VsRcuzYtIsxNbAv5CWM4suXLPGlaTbAW9b9E4ZwrPJtg3Xx6QpSZK6bFOyF17bhWRavEcB/069i98rSUuL7VvSPhjWDmTfpg1CMpUkSZ31RLIVK/cSfxm9DEuANwI/Am4nrsC9kzT04s3Ub+m3yYwA95FtGx8XkqkkSeqsN5KtWDkrJs1KjQC7kSaDfQY4BbiDcorbU4FjgNeQJnQ18Y+Jc8i23UfGpCmp6apehkZSezTplsJVGQUu7UW/jUmX8LcHtgE26f1sI2ABML8XAA+RbuP7AKmwvZ1UNF9PuuPYNb2ftcEfgP0yPN9bDEvKxYJXUl5Zl4n6QylZNMMdvTgvOpGacWkySZVwHV5JebVtDV5VL+sfQfbwSpKkymxN9nGnW4ZkqjrbhuzH0WYhmUpqNHt4JeWRtXf3TuCmMhJRo10P3JPxNQ5rkJSZBa+kPLJeWu7y+F1Nz2ENkkpnwSspD1doUFGyHhsWvJIys+CVlIcrNKgoWY8NhzRIysyCV1JWI8DuGV9jD6+m4tJkkiSpdrYn+8z6TSISVSNsTvbjaeuQTCU1lj28krLKOobyFtpzZzAV7xbgtoyvcRyvpEwseCVl5YQ1Fc2VGiSVyoJXUlZOWFPRnLgmqVQWvJKysodXRXNpMkmSVBuzgQfINsHowJBM1SQHk+2Yuo+0WogkSVLhdib7jPr1QjJVk2xI9uNqh5BMJTWSQxokZZH1UvJ1wL1lJKJWuQu4KeNrHNYgaWAWvJKyyDpZyPG7GpQ3oJBUGgteSVlk7VVzhQYNyolrkkpjwSspC1doUFlci1eSJIWbCywn28SiR4dkqiban2zH1oOkVUMkSZIKsyfZCpJVwMKQTNVEi4HVZDvGdgnJVFLjOKRB0qCyThK6Gri/jETUSkuBP2d8jRPXJA3EglfSoJywprI5jldSKSx4JQ3KCWsqmys1SCqFBa+kQbkGr8rmWrySJCnMOqRJaFkmFO0Vkqma7FFkO8aWA/NCMpUkSa3zSLIVIiuwEFF2C8j+h5XDGiTNyCENkgaRtai4nNT7JmXxAHBVxtdY8EqakQWvpEG4QoOq4sQ1SYWz4JU0CCesqSpZ/1hy4pqkGVnwShqES5KpKvbwSpKkyuW55euuIZmqDfLcwnpBSKaSJKk19idbAfIgMDskU7XBXNKExyzH3KNCMpXUGA5pkDSTrJeMLyP1ukl5rCCt8pGFwxokTcuCV9JMsk4KcoUGDcuJa5IKZcEraSZOWFPVnLgmqVAWvJJm4hq8qlrWY8iCV5Ik5bYh2SYPjQI7hmSqNtmF7Mfd4pBMJUlS4x1MtqLjPmAkJFO1yWzSah9Zjr0DQjKV1AgOaZA0nayTgS4lFR/SMFaRVvvIwolrkqZkwStpOk5YUxQnrkkqjAWvpOlY8CqKE9ckFcaCV9J0XINXUbL+8eSQBkmSlNnmZJ8pv01IpmqjHcl+/G0Ukqmk2rOHV9JUsl4iXgpcX0Yi6qSrgWUZX+OwBkmTsuCVNJWsl4gXA18BFpSQi7pnFLgk42sc1iBpUha8kqaSp7fscOBs0o0DpGE5cU1SISx4JU0lb2/ZI4DzgVcWmIu6yYlrkiSpVHeTfdLQxPgmsEHVias1nkG24+22mDQlSVITPYzhi92x+DPw5GrTV0tsQ/bjbYuQTCVJUuNk7VmbKVYDxwCLqtwItULWKw3+cSVpLY7hlTSZoif/jABvII3JfGrB7612c+KapKFZ8EqaTFmTf7YHfgl8Ddi0pM9QezwC2DLja5y4JkmSBnIuxQ5pmCzuBI7CP7y1thHgrcCDZD+uzgjIV5IkNcwI6Q5XZRe8Y/F/wMGVbJmaYAfgZPIfT/dUn7IkSWqaHamu2O2P7wJLKtg+1dMs4E3AfQx/LD2s4twlSVLDPIeYgncUWA58juzjNtVsewFnUdxx9Mxq05ckSU3zbuIK3rG4H/gPYPOSt1WxNgA+Dayk2OPnHVVuhCRJap6vE1/w9he+n8ZL1G0zB/g70p3Ryjhujq9sSyRJUiNdRHyhOzGWA18F9i5xu1W+EeD5wGWUe7ycV9UGSZKk5plNvqWgqoyTgBeQegnVDCOkseHnU80xsqz3mZIkSWvZlfiCdtC4HjiadDML1dNc4HDgd1R/fDy8gu2TJEkN9ELiC9mssYrU63sEsG7he0R5bAH8K3ADccfFc0vfSkmS1EjvJb6AHSbuB75NGvKwsOB9o+nNAZ4FfA9YQfyx8O5yN1eSJDXVt4kvVIosfn8IvIrU46jizQKeABwD3EL8d94f3yhxuyVJUoNdQnyhUkasJk2Y+gjwZGCdonZYB60HHAZ8ifoVuf1xUVk7QFLzOItV0ph5pNntXVj94CHgbOBU4EzSXb7uCs2ovtYDDgAeDzwR2I80Ga3uHiKN6V4ZnYikeBa8ksbsRXd7xUaBy0m9wOcDF5BWFrg9MqkAi0jHwT7AvqTidg/S0IUm2h24NDoJSfG60JMjaTB7RCcQaATYuRcv7fv5zaRhHpf14krgKuBqUg9iE80HtuvFEmAn0nbv0ftZmzpC9sCCVxIWvJLW2DM6gRraohdPmvDzUeBW4M/AdaTCeCxu74t7erGspPxmky7bLyYNPdgQWB/YuBebAJv3YmtgG2BT2lXUTmdP4DvRSUiKZ8EraYwF7+BGWFNI7jfA81eRVo1Y1ovlpB7ih0gT6vpjdu/9Z5F+R4/FfNI46/nAgl7ML2qDWspjWhJgwStpjS4PaSjbbFIv7OLoRDrGY1oS0J3LWpKmtxBYSnMnJ0mTWUka8tHU8daSCuLJTRLAbvj7QO0zB9glOglJ8TzBSQLHOqq9PLYlWfBKAiwK1F4e25IseCUBTu5Re3lsS7LglQTYC6b28tiW5CoNkliPdHMEqY1GSSs13B+diKQ49vBK8pKv2mwE2D06CUmxLHgleclXbecxLnWcBa8ke3jVdh7jUsdZ8Eqy90tt5zEudZwFrySLAbWdx7jUca7SIHXbxsDt0UlIFdgAVyOROsseXqnb7PlSVziOV+owC16p2ywC1BUe61KHWfBK3WYPr7rCY13qMAteqdssAtQVHutShzlpTeq2O4CNopOQKnALsEV0EpJi2MMrddeWWOyqOzYHNolOQlIMC16pu5zEo67xmJc6yoJX6i7HNKprPOaljrLglbrLk7+6xmNe6igLXqm7vLyrrvGYlzrKVRqk7roXWBydhFShO0m305bUMfbwSt20HRa76p6NgK2ik5BUPQteqZu8tKuu8tiXOsiCV+omJ++oqzz2pQ6y4JW6yV4udZXHvtRBFrxSN9nLpa7y2Jc6yFUapO6ZBdwHLIhORAqwFFgfGI1ORFJ17OGVumdHLHbVXYuBbaOTkFQtC16pe7ykq66zDUgdY8ErdY+TdtR1tgGpYyx4pe6xd0tdZxuQOsaCV+oeT/bqOtuA1DGu0iB1yxxgGTAvOhEp0APAusDq6EQkVcMeXqlbdsZiV1oAPDw6CUnVseCVusVLuVJiW5A6xIJX6hZnp0uJbUHqEAteqVvs1ZIS24LUIRa8UrfYqyUltgWpQ1ylQeqO+aQVGmZHJyLVwApgUe9fSS1nD6/UHbthsSuNmUtatURSB1jwSt3hJVxpPNuE1BEWvFJ3OElHGs82IXWEBa/UHfZmSePZJqSOsOCVusPeLGk824TUEa7SIHXDImAptnmp3ypgXeDB6EQklcseXqkbdsdiV5poNrBrdBKSymfBK3WDl26lydk2pA6w4JW6wZO6NDnbhtQBFrxSNzgbXZqcbUPqAAteqRvsxZImZ9uQOsBJLFL7rQ/cHZ2EVFOjwGJgWXQikspjD6/UfvZgSVMbwWENUutZ8ErtZ8ErTc82IrWcBa/UfvZeSdOzjUgtZ8ErtZ+9V9L0bCNSy1nwSu1n75U0PduI1HKu0iC126bArdFJSA2wIa5mIrWWPbxSu3mpVhqMbUVqMQteqd28VCsNxrYitZgFr9Ru9lpJg7GtSC1mwSu1mydxaTC2FanFnLQmtdtdwAbRSUgNcBuwWXQSksphD6/UXltjsSsNalMseKXWsuCV2stJOFI2thmppSx4pfZyTKKUjW1GaikLXqm9PHlL2dhmpJay4JXay8uzUja2GamlXKVBaqcR4F5g3ehEpAa5m3SLYUktYw+v1E7bYbErZbUBaXUTSS1jwSu1k2MRpXxsO1ILWfBK7eRJW8rHtiO1kAWv1E5OvpHyse1ILWTBK7WTvVRSPrYdqYVcpUFqn9nAfcA60YlIDbQMWAyMRiciqTj28Ert83AsdqW8FgHbRychqVgWvFL7eElWGo5tSGoZC16pfZx0Iw3HNiS1jAWv1D72TknDsQ1JLWPBK7WPJ2tpOLYhqWVcpUFql7mkWeZzoxORGuwh0uS1VdGJSCqGPbxSu+yCxa40rPnAkugkJBXHgldqFyfbSMWwLUktYsErtYtjD6Vi2JakFrHgldrFk7RUDNuS1CIWvFK7eBlWKoZtSWoRV2mQ2mMd0goN/iErDW8FsC6wPDoRScPzxCi1x+7YpqWizCWteiKpBTw5Su3hJVipWLYpqSUseKX2cJKNVCzblNQSFrxSe9gbJRXLNiW1hAWv1B72RknFsk1JLeEqDVI7LAbuwTYtFWk1aaWGB6ITkTQce3ildtgdi12paLOA3aKTkDQ8C16pHbz0KpXDtiW1gAWv1A5OrpHKYduSWsCCV2oHe6Gkcti2pBaw4JXawZOyVA7bltQCTnKRmm9D4M7oJKQWWw9YGp2EpPzs4ZWazx4oqVyO45UazoJXaj4LXqlctjGp4Sx4peaz90kql21MajgLXqn57H2SymUbkxrOgldqPnufpHLZxqSGc5UGqdk2B26OTkLqgI1xNRSpsezhlZrNS61SNWxrUoNZ8ErN5qVWqRq2NanBLHilZrPXSaqGbU1qMAteqdnsdZKqYVuTGsxJa1Kz3Q2sH52E1AG3A5tGJyEpH3t4peZ6GBa7UlU2AbaITkJSPha8UnN5iVWqlm1OaigLXqm5nEQjVcs2JzWUBa/UXJ58pWrZ5qSGsuCVmsvLq1K1bHNSQ7lKg9RMI8B9wMLoRKQOuRcnikqNZA+v1Ew7YLErVW090uookhrGgldqJscSSjFse1IDWfBKzeRJV4ph25MayIJXaiYnz0gxbHtSA1nwSs1kL5MUw7YnNZCrNEjNMxtYBsyPTkTqoPuBdYHR6EQkDc4eXql5dsJiV4qyENgxOglJ2VjwSs3jJVUplm1QahgLXql5nDQjxbINSg1jwSs1j71LUizboNQwFrxS83iylWLZBqWGcZUGqVnmkVZomBOdiNRhy4FFwMroRCQNxh5eqVl2xWJXijaPtFqKpIaw4JWaxckyUj3YFqUGseCVmsWxg1I92BalBrHglZrFk6xUD7ZFqUEseKVm8TKqVA+2RalBXKVBao6FwFL8Q1Wqg5XAusBD0YlImpknTqk5dsM2K9XFHGCX6CQkDcaTp9QcjhmU6sU2KTWEBa/UHJ5cpXqxTUoNYcErNYeTZKR6sU1KDWHBKzWHvUlSvdgmpYZwlQapGdYD7olOQtI4o6SVGu6PTkTS9OzhlZrBS6dS/YwAu0cnIWlmFrxSM3jpVKon26bUABa8UjPYwyvVk21TagALXqkZ7EWS6sm2KTWABa/UDJ5UpXqybUoN4CoNUv1tDNwenYSkKW2Aq6hItWYPr1R/9iBJ9eY4XqnmLHil+vNkKtWbbVSqOQteqf7s4ZXqzTYq1ZwFr1R/nkylerONSjXnpDWp/u4ANopOQtKUbgG2iE5C0tTs4ZXqbUssdqW62xzYJDoJSVOz4JXqzUulUjPYVqUas+CV6s3Z31Iz2FalGrPglerNXiOpGWyrUo1Z8Er1Zq+R1Ay2VanGXKVBqrd7gcXRSUia0Z2k24BLqiF7eKX62g6LXakpNgK2ik5C0uQseKX68hKp1Cy2WammLHil+nISjNQstlmppix4pfqyt0hqFtusVFMWvFJ92VskNYttVqopV2mQ6mkWcB+wIDoRSQNbCqwPjEYnImk8e3iletoRi12paRYD20YnIWltFrxSPXlpVGom265UQxa8Uj150pSaybYr1ZAFr1RPzvaWmsm2K9WQBa9UT/YSSc1k25VqyFUapPqZAywD5kUnIimzB4B1gdXRiUhawx5eqX52xmJXaqoFwMOjk5A0ngWvVD9eEpWazTYs1YwFr1Q/TnqRms02LNWMBa9UP/YOSc1mG5ZqxoJXqh97h6Rmsw1LNeMqDVK9zCet0DA7OhFJua0AFvX+lVQD9vBK9bIbFrtS080lrbYiqSYseKV68VKo1A62ZalGLHilenGyi9QOtmWpRix4pXrxJCm1g21ZqhELXqlevAwqtYNtWaoRV2mQ6mMRsBTbpdQGq4B1gQejE5FkD69UJ7tjsSu1xWxg1+gkJCUWvFJ9OOZPahfbtFQTFrxSfXhylNrFNi3VhAWvVB9OcpHaxTYt1YQFr1Qf9gZJ7WKblmrCCTJSPawP3B2dhKRCjQKLgWXRiUhdZw+vVA/2BEntM4LDGqRasOCV6sGCV2on27ZUAxa8Uj3YCyS1k21bqgELXqke7AWS2sm2LdWABa9UD54UpXaybUs14CoNUrxNgVujk5BUmg1xFRYplD28Ujx7gKR2s41LwSx4pXhOapHazTYuBbPgleLZ+yO1m21cCjYnOgFJnAncHp2EpNL8MToBSZIkSZIkSZIkSZIkSZIkSZIkSZIkSZIkSZIkSZIkSZIkSZIkSZIkSZIkSZIkSZIkSZIkSZIkSZIkSZIkSZIkSZIkSZIkSZIkSZIkSZIkSZIkSZIkSZIkSZIkSZIkSZIkSZIkSZIkSZIkSZIkSZIkSZIkSZIkSZIkSZIkSZIkSZIkSZIkSZIkSZIkSZIkSZIkSZIkSZIkSZIkSZIkSZIkSZIkSZIkSZIkSZIkSZIkSZIkSZIkSZIkSZIkSZJUhO2Ao4FzgLuBlcCdwNnAR4Hd41LL7Y3A+3oRYbQXl5X8mjKNThMrgVuBE4G/AxYE5TiZYfbjMN/bVPEgcAXwJWDvHDkVoW7HliRJlZkNfABYzvQn7FXAZ4F5MWnmchlr8o/Q9oJ3YlwDHBCS5drqVvBObEt/nyOvYdXt2JIk1dCc6ARKMAv4FvCC3v/fBBwLnAXcB2wNPAd4ee+5rwd2AP4KWF11sgp1LfDCvv+fA2wGPJp0fOxIukpwInAg8LuqE5xgv96/D1T8uRP305j1gEOAdwDrAP8B/AY4v7LMJEnqqPeyptfnRGCDKZ73NMb3AL+ukuyGZw/v8AbJZy7wyb7nngeMlJ9aacr83l7T99zP58ouv7odW5Ikle5hpHGFo8D1wOIZnv8x1pww+3ul+k+iI6SxnJeQLtu+r+95s4BXAqcD9wIrgKtJPcrbTPO5uwCfAi7svW4lcBdwJvBPpJ6ziWa6pDxR3tx2AP6T1Ku3ArgN+D6ph7M/j7yF0yzgSNL+Xk7qdT8HeBOpyByzAaknc2xc7eZTvHd/UfqaHPnM5Bd9z3/qJI9n/S6/0Pd+/zLFZ7687zmfHjDvsr+36WzQ99xzJnk8z/E+Js92Ddp+Z5PayK9JY/tX9f79NfCK3uOTeRjwCeAi0vG7ArgB+Dbw+Gm2ZZj9IEnSX7yfNSe7Nwzw/G2Af+7Fu/p+3n/C7C9QRllzwlwfOGnCY/1xL/CsST7zlcBD07xuFLiKtYvSLAVv3twOAe6Z4jWrgNdO2DeDGnvNn0jFylR5nQts3Pe6b/Q99qZJ3neE9IfNKHA/gxcMWbbhyX3P/+KEx/J8lwf3PXbRFJ/53b7nPGaAvA+h3O9tptcs7Hvu/014LO/xPsx2DdJ+NycNc5ourzNZ+w+tA6bJaSzeOcm2DLMfJEkap/8EtsUQ7zP2Hst6/55BGsN4APBwUqH1s95jq0mF0DOBg4C3Ajf3HnuQ8bPXdyH1Bo2Senc+23vdAcBLSJfNxz77+Ak57duLa/qes29fjMmb20bA7Yw/2b+497rDSeNX+0/Ow0x++hVpjPVBpKEk/dv0i77XPXVCPhP1F4/fyJHPINswn1RcjQIX9/0873c5QuppH3tspwmftw6p13AUuHyAvKv43mZ6zYuZ/HsY5ngfZrtmar9zGP+74gJSr/pje/9e0PfYWYyf63BR32OfIP1BdDCph3bse1sN7FXQfpAkaS13k04atw75Pv0n0tNZexWH5/U9/uZJXr8DsLT3+Ml9P39r3+s+PMnrNu97/OJJHoeZx/Dmze1f+l53EmtPaFyX8UVG3oL3x6RhDf02A67re84hvZ/PAv7c9/MdJrzumL7HnpEjn0G34Ybe8+/s+9kw3+UH+x5714THntP32PsGyLuK722q12xGmvR5b99zD+17fJh9NMx2zdR+X9n3+BmkPzL6ze/9fOw5r+x7bGzc/w2TbM+bgN/3on9OQBHtXpKkvxjribtiyPfpP2E+dpLHf8CaAmiqcX5f7HuPsUJtQ2BJL9ad5DUHMHORMVPBmze3s/t+9pgpXvfCAfKbTP/+3HOK57yu7znH9P386L6fv7vv57NZ01t9I1Nv63T5DLoNl/eev6LvZ8N8l7v0PXbehMeO63tsYu/vZO9X1fc2SHx5wuuH2UfDbNdM7feXfY/vP8V7H9j3nBP6ft7f/j7JYEMQimj3kiT9RdE9vPeydm8krCm0Bo2XTHj9COmmFy8g9fB9jrSiRP+qEXkL3ry53dm3zVOtRrDZAPlNZuw1d0zznG36nnd63893JF0iHmX8smBP6nv+RzPk0p/PMD28Y/J+l+f2Pb5972ezSZOyRpl88tdk71fF9zZTXAQcMc375NlHw2zXTO13bB/fPUPOY2N1+3+f/DVrjsexuAL4X9IVle1meM+87V6SpL/IOoZ3MfCRXvxb38/H3mPiGMoxM93QYmK8uve6EcaPo+2Pe4GfMPOJb6aCN29uY2MMp9pmSJeVhymcBn3vievdntL32CN6P/t838/2yJBLfz7DjOEd9rt8c9/jb+/97JC+n012E4fJ3q+K7+0axo8X35e0VvGepAmSUxlmHw2zXTMdb2PvPdOVoCt6z1s+4eeHkMaaTzYJbTXwVdJEvjFFtHtJkv7iA6w5cQyySkP/DPyb+n4+08nnjt7jN7J2ITBZbNR73Tv73vsS0vjH/UiXPAf97JkK3ry5jfV6TdcLu/UA+U1m7DWT9ZCO6e+tO2PCY6/se+xDpEJnLN88NznIsg1TrdIw7He5GWsKr7EJef+v9/9TLcM22ftV8b3lLcKG2UfDbNdMeQ/Tw9tvAWnC2juAn7Lm+xxl/HrERbR7SZL+YlvW9Lpcx+Tj5fp9izUnmq/3/Xymk8+prClMNp7iOduTxuYdQOolhLSW6ChpNvdkN8QYpCdupoI3b279y5jtM8XrXjVAfpPp79Ga6r1f1GjlDz0AAAt4SURBVPecL0x4bBFrJkZdRZqgNvbcySbmDZrPINvw877n96/DW8R3+VPW9Apuw5rVKk6Y4vmTvV8V31veImyYfTTMds2Ud/8Y3gOmeM5Bfc8Z+z52JY0bfiHwyElesxdr1gHvL6aLOFYkSRqnf5LTr5j6kmv/JKkVjF9GaKaTT//l6E9P8vhiUmE21js0NsN8rBi/mcknWb1kgM++tO85E2efD5PbG/te94tJ8tuI8ctp5S14T2T8DSbGcrqk7zl/Ncl79E+0u7j373Jgkwx5TMxnum2YS1p2auy55zJ+LGkR32X/c47v++/DM+RdxfeWtwgbZh8Ns10z5f23fc85gzV/9I2ZuErDEb2fH8nUxwOk8cK3sKa4HVPEsSJJ0jizge+x5gRyI/Ae0qXpA0hreU68+cE/THiPmU4+Cxnf0/o/pBs5HEBax7N/rc6j+l7Xv77nCcDzSbPEDyVNYOm/JHonqZdpov7JTu8nzWDvf17e3BYxvoA4ldSTdRBpnO8VjN9nw0x+Oot0kj+INFyhv9g9l8knGj12kvf5QYYcJsvnGsYP79gfeDZpObAr+563lLVXlyjiu1zA+CW9Rkk30JjqDoGT7fsqvre8Rdgw+2iY7Zop77mMb0cXAC/rvffLJuR9Dmv+KNya9P2MPfZj4DBS2zoM+GHfY98saD9IkjSlWaTxvGOXF6eK+0m9NhMNcqJfQrpz2HTvP3HNzacw/d2WLmLN7PSxmOgTU7x22Nwg3Yjipmle07/ubd7JT/0F98S4hjUrFkxm4jY9P0MOk+UzSFzD5MtiFfFdwvhlyCYWSlPlPXHfl/295S14h91HebdrkLy3ZHzRO1mc23tev79hfIE6WZzH+OFERR0rkiRNaltSYXcuaQLKStIkmDNIvXhTreQw6Il+AfC23vvdRToR3kAaGzzZ+p8AjyItYXRL7/m3kYZevI50KfXw3nssZ/Jbzy4kTW66tveclUw+qSZPbpAuFX+UtO0PkXo3zyT1Bo8wfOG0mPTHyB9If5CsJA2x+ATTz/iHtA7v2HvdweRDOrLkM1msIn0nvyZNLlowzfsM+13C+OXVRkk9zDPlPdm+L/t7y2vYfZRnuwbNew5pHPCvenmtILWlX5KGPUy82cWY3YBjSVcmlvVedzNp6MWrWHvIDvz/9u49RK6rDuD4d5uktam2VftA6j/BgKJFUNraZhX8QyhVUMEnPkgsBR+VPhTBFv9IFRVRiygotY//fAVB0VraigpW1tpH2oKa1UqjSLWtTRu3bRKzTcY/fneYM3fvuTNzZ2ZnZuf7gWGy9zzmnLt3yW/uPY/RXCuSJGkOfJHuu3uSJEnShrGZ7nG1r63PLkmSJM2Gy4kJbnvoBLu/mmiLJEmSpBEqj7F9ls5ua5IkSdLMe5yY2PYcsRnBeZNtjiRJkiRJkiRJkiRJkiRJkiRJkqR5dBLwLWL3o2PAYeCqibZofNIVDK7pkXc5ybtR9doq+AjwN+BmYuvaSbVvmN3LRuWTxI6DuyfbDEmS1MQXWBvo7J5kg8Yo7eMh4BU1eQ14124jfOWE2jcNAe88XA+SJGX3ip91Fyf//gSwF3hiQm1ZTycDNwBvmXRDpsA/gHdXHD8VeDPwGeAFwPXA74D716ld5xfvh9fp8yRJ0ga1j/m5c1V153JXJu883NHr9w7qZUneG8bdqCk1D9eDJEkbTt3j63KeZWAB+DjwZ+Lx9u4k3yZgJ7GN7VNF+lPFzx8u0nOfvwycQIyRfAg4ChwEfgKcW+Q9G7iFGGe8SmywsAd4TcM+HyB2IWsBTwJnVuTtFeAM2+cquc8sl/sg8CBxrg4APwNen6mzTr8B7+lJ3nsy5Ud9ffRq3wlFnXcBK8R1sR/4NvDymr5sIZ5kLAH/Lco9BvwceG/Rj6o29PpbkSRJU2jQgPe7pTy7izxnA3f3qO/3Rb6qz18GbsyUWyGGHPyrJv2VDfq8DHwq+fl7FXnrAt5R9LlKPwHv5zOfd5jBd1brN+DdmuR9IFN+1NdHXftOI3aSy9W3Arytor5ziC8KdW35BTF8o9wGA15JkmbQecXr73T+824fa2sff654XyLGel5ITPjaTHcwsxf4ELBYvO9N0u6mexx0+/gx4i7bl4A3Au8g7vS2048TY4o/CuwA3kV3YPidAfqcBlCbgPuSYxeX8uaCz1H0uWnAe4Q4V18B3kQEdWlbbs13vVK/Ae/7krzfryg/jusj174F4DY618ZNwCXEtXE1cbe2fa7SlSW20P37/jXwnqKtO4G/JGnXJ+Xq/k7culmSpBlRdyczvZN1F3BiKX1nkr5E950xiCXPlpI8OzN1X14qd0EpvRyMLiZpf6jrXKY/7QDqdcDzxbH9xJ3Mttx5GUWfmwa8LdaulHAO8aWhRQwTGESv9pxFPP5fSfK+NdOuUV8fufa9Mzl+RUWbtwHPFOm/SY7vSsrdytqhC2cCT9MJ4E8qpTuGV5KkGdZvwLtYkX5nkv6GTP0XJXnuqKj7WeLuW+rEJP0ga4OTU5L0fZnPrVIVQH01Of615HjuvIyiz00D3kOsDcQgVlloEoy1BnzdUlN+1NdHWn96vn5KJ7jPjf29KSm7rTh2e3Ls1Zly7wc+V7xeWkoz4JUkaYb1E/CuEJOEyv5DJyjNWSAmB7XoXu6sXfdfM+Xq0heoDoZ6qSqzFXikOP48nclfufMyij43DXhz56ppMNZvoPsQ1atZjPP6SOtPz9dj9N/uFhHEQkx0bBGTFJsw4JUkzYWNug5vPx4nxkuWnV681wURLSLwOTXJn6qqt1f6KIOOQ8TqArcTdwxvJIZU5Iyiz031OldNVa3D2wL+B/yTCEjrjPP6KHtJH3lSp5TKDTrsQ5KkuTLPAe+xzPGDwBnFK2eBzrJfdXf6JukOYjLWB4g7vFfX5B1nn3OP6MftCDGhq6n1vD6eIYLXfwNv7yP/I0m5FxcvSZKUUfXIdt61l6g6jZjtXuUi4u5dmn8aXUWsaQtwHdVr88JwfT5avL+woswm4GV9tXR2jOP6+GPxfhYx0fC+iteTxBfUzcQENIA/Fe9nAK/K1P1bYljLKvnfvyRJmkH9jOHNjTn9SJJnibUTqsqz8HcNUPew6U3K7KJ6HGhqmD7vT45vK5VLl/7KjeEddOxvL03O4SDlhzlXufqvSI5/s+IzX0RnTPYTdJ7MXJmU+zFrJ0JeQAzLaFG98ke6I2F5NQpJkjTlhgl4twD3Jvn2EruA7Sje03VW72GwNWknEfBC7P5VF/AO0+ebk7QHiEfyi8BnidUqjlP9mbMa8A5zrnL1b6W7vz8g1iO+kFjbN13D+WOlculau7cR538HEQwfSNKqNq1I+3EdESDvyPRbkiRNmWECXojH8GkwUPW6l7WP66c14N1O7FqWC3iheZ+3072mbfr6Ef1vLVw2rQEvND9XdfVvJ1asqKvzyxX1bQcerilzHLg204+vZ8pIkqQZMGzAC3Fn7lLgl8SM+1XicfKdxGPtqgl/0xrwAlxD76CmSZ8h1oD9IbG81iqxg9e1xBjejRjwQvNzVVf/ycT20EvEhhGrwKPEF4eqNYHbtgKfJrYzfpoYV/0osIfY6a+u3DeIFS2OEmN9y8uoSZIkSQNpB7yDbC4iSZKG4CoN0vpJtyE+MrFWSJI0Z+Z5HV5pPS0C5yc/PzyphkiSJEnjUJ4YdslkmyNJkiSN1mFiEto+4LIJt0WSJEmSJEmSJEmSJEmSJEmSJEmSJEmSJEmSJEmSJEmSJEmSJEmSJEmSJEmSJEmSJEmSJEmSJEmSJEmSJEmSJEmSJEmSJEmSJEmSJEmSJEmSJEmSJEmSJEmSJEmSJEmSJEmSJEmSJEmSJEmSJEmSJEmSJEmSJEmSJEmSJEmSJEmSJEmSJEmSJEmSJEmSJEmSJEmSJEmSJEmSJGm6/R86WQd+wyBG6wAAAABJRU5ErkJggg==;" vertex="1" parent="1">
          <mxGeometry x="10" y="630" width="280" height="280" as="geometry" />
        </mxCell>
        <mxCell id="20WILuZ4rldSZoYa5nqy-12" value="" style="shape=image;html=1;verticalAlign=top;verticalLabelPosition=bottom;labelBackgroundColor=#ffffff;imageAspect=0;aspect=fixed;image=https://cdn4.iconfinder.com/data/icons/free-ui/64/v-36-128.png" vertex="1" parent="1">
          <mxGeometry x="64" y="80" width="200" height="200" as="geometry" />
        </mxCell>
        <mxCell id="20WILuZ4rldSZoYa5nqy-13" value="" style="pointerEvents=1;shadow=0;dashed=0;html=1;strokeColor=none;fillColor=#505050;labelPosition=center;verticalLabelPosition=bottom;verticalAlign=top;outlineConnect=0;align=center;shape=mxgraph.office.security.key_permissions;" vertex="1" parent="1">
          <mxGeometry x="20" y="1070" width="25" height="53" as="geometry" />
        </mxCell>
        <mxCell id="20WILuZ4rldSZoYa5nqy-14" value="" style="shape=image;verticalLabelPosition=bottom;labelBackgroundColor=#ffffff;verticalAlign=top;aspect=fixed;imageAspect=0;image=data:image/png,iVBORw0KGgoAAAANSUhEUgAAArwAAAK8CAYAAAANumxDAAAABHNCSVQICAgIfAhkiAAAAAlwSFlzAAALEwAACxMBAJqcGAAAIABJREFUeJzsnXe4HlW1/z8nPRASQg81dATpCtjBjihiQVFRUexee7kW7hXLFRUrXusPBOsFG2LBhlIERRQBkd4SCL2EEBLS8/tjneMpOe/Mmndmz94z8/08z3rEvPudvWbOOzPfWbP2WgMIIdrMNGAjYMNBmzXOf88E1gOmD9p4/z0FmJhja4Dlg7YMWDpoS4DFwEPAIuBBYCHwAHA/cB9wz6DdC6wOciSEEEJ0loHYDgghCjMBmANsA2wNbAFsDmw2aCP/e4NIPvbLGkz03jFoC4BbB20+cAtwO7A2loNCCCGahwSvEOkxGdge2AnYEdgWE7dDNgeYFM27+CwH5gE3ATcM2nXANZgYFkIIIUYhwStEHAYwUbs7sCsmbHcatG2xFAFRnIcw4fuvQbsSuBxLnRBCCNFRJHiFCM9cYI8x9igsP1bUwwJM+P4D+DvwN+CuqB4JIYSoDQleIapjANgF2G/Q9gf2xRaGifRYAFwC/AW4GBPCy6J6JIQQIggSvEL0zxzg8cDjgMdi4rZpi8TEMCuAS4ELgQuAP2FVJYQQQjQcCV4hfEwE9sYE7pDInRvTIRGcNVgaxLnAH4HzsRJrQgghGoYErxDjMwHYB3gqcAjwJBS97TorsdSH3wG/xVIgVB5NCCEagASvEMM8Cng6JnKfAsyO645InHsx8fsr4DdYMw0hhBAJIsErusz6mLh9DnAosF1cd0SDWQX8Gfg5cCZwc1x3hBBCjESCV3SNHYHnYSL3ycDUuO6IlnIl8FPgx1g9YCGEEBGR4BVdYE/ghYO2V2RfRPe4FvgRcDpwdWRfhBCik0jwirZyAPBi4AVY9zIhUuBKTPh+H5gf2RchhOgMEryiTewGvAJ4GZa6IESqrMXq/X4X+CGq9yuEEEGR4BVNZytM4L4ca/wgRNNYBvwMOBU4B6v/K4QQokIkeEUTmQIcARyLlRGbENcdISpjPiZ8vwXcFtkXIYRoDRK8oknsiYnco4GNI/siREjWAL8Gvjb4v4r6CiFECSR4RepMw1IW3oQtRBOia8wDvgGcDNwX1xUhhGgmErwiVbYD3oJFdBXNFcJyff8POAm4PLIvQgghhCjB04GzgNXYSnaZTLaunQccjoIWQgghRGOYhOXlXk58ISGTNcmuA96Ipf4IIYTogaIDIiYzgNcD7wS2jeyLEE3mbizV4Suopq8QQqyDBK+IxZ7A+cDs2I4I0SIewkTvF4B7I/sihBDJIMErYjEA/A3YP7YjQrSQR7DKDp8G7orsixBCREeCV8TkicCfYjshRIt5BPgmJnzvjOyLEEJEY2JsB0SnuRXYY9CEENUzGTgIK/E3G/gHsDSqR0IIEQFFeEUINgWW4LuxzgWuBaaGdEgIAViO7y7YIjchhOgME2I7IFrFJODtwPXA+53fmYctsBFChOdXSOwKIYQQfXMIcCXD9UGXAts4v7sBtrAmdk1TmazN9gjWwVAIITqHIryiLNsCPwL+CDx6xL9PBz7l3MZi4LiK/RJCjOaLwPzYTgghhBBNYhrw31iubq+I0hpswYyHCcBlGduSyWT92z3ATIQQQgjh5gjgZnw32ovxL4482LlNmUxWzN6MnzcDn8U6IQohhBCdYzfgtxS/2b6iwBxn9rF9mUzW267CX4JyI+D+we8tAI50fk8IIYRoPDOBzwEr6O+GexuwnnOunYDlfc4jk8nWtefg56Rxvv8rtNhNCCFEyzkS69BU9qb7kQJzfraC+WQyGfweP7sBK3tsZzFWclALnYUQQrSKmcB3qO7GuwTY2jn3LGyRTWyxIJM12VYDe+HnV45tXgjsXGCbQgghRLI8CWsIUfUN+HsFfHhzgPllsi7Zyfh5VoHtLgXeiTp1CiGEaCiTgROwyFCIG/Aa4ECnLxMZ3chCJpP57WFgDj4mAv/qY47zUG6vEEKIhvEo4FLC34j/UsCnZ9Tgj0zWRvtv/LylxDyLgKMLzCWEEEJE4z+w15R13YxfXsC3X9bol0zWBluAvyrKhsC9Fcz5fdTYQgghRKJsAZxN/TfkW7HWwx52pf9yaDJZF+3V+PlchfPeBDy2wNxCCCFEcF5ANZGdfq3IK9cvRfRTJmuSXYp/MdnOVP8wuRxb0CaEEEJEZX3gFOLfmB8GtnL6PJvh7k8ymay3HYyfswL68WOU4iCEECIS2wGXE/+mPGTfLeD72xPwVyZL2c7Cz1Nr8Oc6YI8CPgkhhBCleSLpNXNYAxzg9H8ScE0CPstkKdpKLN/dwwTgipr8Wox1axRCCCGC81osty72TXk8+3OB/XhOAv7KZCnal/Hzhgj+fRK1JRZCCBGIicAXiH8zzrOXFdin3yTgr0yWki0ENsbHTODuSH7+HNjA6acQQgjhYhbwa+LfjD02H3+Zsj2AVQn4LJOlYu/Fz6cj+/pP1J1NCCFERexM8/Jd/6vA/n01AX9lshTsJmAqPnYAliXg812oXq8QQoiSPB14gPg3taL2MLClcx83wV7jxvZZJottRRaE/TgBf4dsCXBEAd+FEEKIf/M2bLV27JtZv/btAvv67gT8lcli2kX4eXIC/o611cBbC+yDEEKIjjMR+Drxb2BlbQ3+V52TgesT8Fkmi2UH4WMC1oEttr+97H+c+yGEEKLDTCatV5VlrUjU6vkJ+CuTxbDT8fOaBPzNs29iD+5CCCHEOkwFfkH8m1XVdlSBY/CHBPyVyeq0ZcBcfMwA7kjAZ4/9CJji3C8hhBAdYTrwW+LfpELYfGCa8zjsheUCxvZZJqvLPo2f/0nA3yL2a/wlCoUQQrScGcB5xL85hbTjChyPbybgr0xWh92D1dj2sB3wSAI+F7U/Aus791EIIURLmYW14419UwptDwNznMdkM2BRAj7LZKHtLfg5PQF/+7U/oa5sQgjRWTYC/kb8m1FddlqBY/OfCfgrk4W0a4BJ+Hh8Av6WtQuR6BVCiM6xKXAF8W9Cddoa4DHO4zMVuDkBn2WyUPZcfAwAlyTgbxV2IUpvEEKIzjAHuJr4N59YNzwvL07AX5kshJ2Dn1cm4G+Vdi5ayCaEEK1nG+AG4t90YtpLCxyv8xPwVyar0lYDe+NjPWBBAj5Xbb9BJcuEEKK1bIrE7lpgHv4yZfuhMmWydtm38HN8Av6Gsp+g5hRCiD4ZiO2A6Mn62Ks8b6vdtnMc/hakpwLHhHOlNawE7hu0e7FKF4uxChlD/7tkcNyqwf8d+u8JmPiYNPi/Ewf/bejzoYcORoydjEXppmKvqKdjJfY2AGYCs4ENgY2xhz3vQ06bWQLsgjWPyGNr4DosyttWTgFeF9sJIUTzkOBNk0nAWcBzYjuSEA9jN/47HWPnYJHxLi92WQrchC3kWzCODQnclJkBbA5sAWwJbIWJuu0GbQdMHLeZ44GPOsd+D3hFOFeS4dPAB2I7IYRoFhK8aXIK8NrYTiTIacBrnGOPAz4ezpVkuA3416BdC9w4aJ6IYBuYBewE7Iw9ED0K2B3YFYskN5k7sP1a6hh7AHAx3bmmvwM4KbYTQggh+udjxM+VS9XWAPs7j+M0rEVxbJ+rspXA5cDJwJuwOqvejltdZBImfl8KnIAterqX+H/HIuZ9uINuNKMZaauxqixCCOGiK9GApvAG4BuxnUicC4EnOce+DPhBQF9Ccju2rxdhzUYuB5ZF9agdbIflxR80aPuTZq7w5Zhvaxxjm/w7L8My4KnAX2I7kjgTsLSgbbCUoG2wHPlZWO78zMH/Xg/4J1YC7w9Ybr8QQlTO4dhin9iRkybYSwoc16ZEvq7HHnaOBuYW2D9RjilYtPw/gbOBh4j/W1iLCTkP02nXm4yidi+Wyy1szcJjsQW7J2K/51uwt0NFj+sa4B/AZ4Bn0vz0ICFEIhyE5enFvnk0xW7BH5U7ELt4x/Z5vBv16cCxWNRRpMEk4HHAh4HzgBXU/9v4RQF/j4vgX2p2Nd1M79kJeBXwdeBKwpZjXAz8EHubMLPCfdgKS03ZC5WcE6L17Iq9Oop902iafajAMf5eAv6uBS7DcrQfi9KJmsIGwPOx6HsdDR1WYtcED3Ow6iWxf9cp2G9pv2CaDRwFfAerVhPrWC/HcuLfiKVGlGUW8BFsAe55WBWOFwKbVLBtIUQibIZFK2PfLJpoi7G8NA9bY/VM6/ZxJXYjfjOWNyeaz35YmbArCPOb+d8CvpwayIem2hcKHLumsB2WbnMRaaa8rcTeSBxJ+bSHDbEyfENpRaux9QufwNZtTCq5fSFEJCZijSViX7CabEU6UH20Jp9WAr/DiuO3vUZs19kReD/wd6r57TyIP6q1H2mm6sS2VzmPX8psjD0kX0iz/sYLsTchjy+5/5thaRpjBf4i4ExscXcVkWUhRE2cQPwLVNNtNXbj97AeYV9J/xkrF6bXcN1kRyzv9yr6/w29v8B8F5SYp832CP7ShanxZCxPNkbeeNV2JZbyUKb5zx7Ywrvxtj/09uy1WGRYCJEoz6NZT+4p2wUFjvurKp77Fqy5xc4FfBDtZ1/s9frdFPsteV8Jv7jAdrto84CNnMcyNuthEctQKTKxbSHweeyBsF+ehXXO7DXHcuDn2IK6FEsMCtFZdsAuArEvRG2yI53HfgC4pORcK4AzgEPQwjORzSRswdvPyC8N9VLnNqdi7aJjn3Op269J+/ycgeXm3kP8Y1WHrcZE6YF9Hq9pWHBhec489wOfwypYCCEiMg2rbRj74tM2uwV/dOwJfc5xM/ABLL9MiKLMwVIe5rHub6tI44QPjPN92fj24QLHtS42wCrMdLkyzznAU/o8frsB5zvmWIOtpTiC9lfvEE5SfgJuI/8PW8wkqudDWF60hzPwN6/4PfBFLGK0tg+/UmcyVu5oFpYLNwuLPk3FmjIM/S/YTWT14P+uGfz3KVgkc8LgmLWDY1Zh0fAVWF7lUqxSxmJsFfaDwAOD47rEBOAw4K1YQf8BbJGPR/Rujr3a3SCYd+1iNdbAo0jaUygmAq/HFs/qodn4E1aB4Xd9fPeNWCTXkyN8G5Zi9A3sOiQ6igRvfRyDlRESYVgM7ALc5Ri7HXAtvfO9lmG1e7+ILUJqKpOAbYHtsVSa7bHyaHOwkm5ziJ/r+BDWhOMeLOf1Tqyt8gLsRjUfuBVLCWgbu2GRLm87cT0wF+d2YG/sVXcsnomJs0dH9CFlzgXei739LMJOwHexxk0e7sWE71ew644QIgB7o05qddgp3j8I8Mlxvn8/VgeyaSVvBjCxfyTm/4+w7lNtWO29FosC34JF278KvBNbyLJtBceuKexN2E5abbaf93G8q2BLrIxW7P1vgq3BggxFz+mJWOpKkWvdQizSHvthX4jWMYvsFaay6mw1tkI+jxnYk/7Q9+7AIgwzHN9NgS0xcXsiFh1ZRPxjH8sWYUX5v4qtdn8MwykYqfM97NWsJ8fwj8Q/1k22NzuOcVUMYH/XBwPsR9vtEazTWtG0ncdQvInTImzhYNmGGUKIQX5E/ItIl+y8jL/FBKxu48i2nP9B+he87YDXYCkxNxH/GKduy7FmEF/FStGlWDbuMIb9/Sfw9IyxRxDvWLbFlmIpJKGZixoKVWG3AS8oduiZjXV9KzrXLfirpAghevBy4l84umgvGudvcTDjV8h42zhjY7M+JohOAq4j/vFsg90N/AR4O7AXcdcvTAKuYV0ff4GlpoxkAnD9OGNlxe3vhG1P+xIU1a3afoa1hvcyAHyQ/tow/5n+y6YJ0Wk2p9ulZ2LazQxHbXcEfpox9n4sMhCbTYFjgV9ii+ZiH8O22z1YtY5jKXZDrYK3Zfi1AlssOfI3eSCWthH7mLXBjs/6w/TJ+tj6gdj71lZbDLyD4UowHg7Bru1F51qD/S3VvU2IAmixQlz7CJbjmleofC3wpR5/w9BsipWnOh8tSIpt/wI+g7V3DVm3cza+G/H9wNFjvns0lm8e+1g12Vbiy/P3sgP224m9X12w87AqM152pv+3I3cy/ptCIcQYXkb8i0PXbTH+xVwrqSe/DywadDTWIz6v+5Ysjt0HfBvLnZ0+/p+xb0Yulsyzo8b5/gaD2+jnla3M7AqKRQt78TT6iyLK+reFjH9e9GIjyuVU/xQr3yiEGAelMqRhDwBfKzD+7PH+mBXyGKze6kMB9lUWzh7GUh9eTHnxuzP+8kkX5WxrXywnNfbxaZotpZoFSm9HDx0x7bvAzNy/kjEZ+FaJuR7EFr8KIcaQlS8qq8d+iD14TAFuLPC9Q8f5e5Zhfawc0mUJHBNZeXsI+A5WA7iftIefOedZAxzg2N5E4H1YKafYx6YJthDraleGAayJROx9kVnFmr2y/1yjOLHkfN9DXQ6F+DdHEf8i0GW7B3jhmL/JCwp8/2qqWcW9PXZTXJjAMZGFsTuwG+ju+DikwLa/69zmELtirYljH5OU7QFgv4LHdSyTge8nsC+yYVtCsYj9h0vOdwP2tk6ITrMZ1row9gWgq3YmvXvUn1tgO2XKlB2IRfi1AK1bdjFW7WF9xmcCcLlzW0vor2rEROBDtKe7XpW2CNi/j2M6kvWA3yawL7Lx7UT8b13eir1F6XeuFcB7iFvaUIio/IT4J30XbQnwupy/zT74Rej9FG85+TTgDwkcC1lcWwR8hXWjvscW2MbxlGN/VLt5pC0DnlLqiJrY1fmdvp2Dv8TkMZQTvWuxIEtTunMKURkvIv7J3kW7DH91hZMLbPck5zafhV4ly8a3P2JVHmYxurNfli3AxFVZ1seqTMQ+BinYy0oeS4ndZtlV+EuXvbGC+f6JddcTohNMA+YR/0Tvmn2DYi2BN8dfIWEl8KiMbT0JuCCBYyBL3xYXGPtKquUYrCpB7GMQyz5e8vhNRWK3iXYb8Ohx/p7j8Y4K5rsXq98tROs5jvgneJdsCf2XiPlggXl+Pc739xr899jHQNY+u4QwOYF7YgttYu9f3fZLyh3PCajiTpNtIX4R+v4K5lsBvME5nxCNZEusTmfsk7srdjPFytCMZSpwS4H5hsqUbQ78P7QYTRbOnkA4ZmECMPY+1mXzKd8u/BsJ7IesnC0DDh/7h+3BZyqa8xPO+YRoHMqTq8/OATb2/VkyObLAnNcAH0DNImRh7QzCMwH4ZKT9q9NWUb7W7kcS2A9ZNbYCn+gdAE6vaM6vU00nPyGS4QDKr/KU+eyrVFMfdwjl38pSsqdRH6/AIl+x9zmUlc3bfWkC+yCr1pYDzyWfqcD5Fc35Q6zxkRCt4M/EP5HbbquBd3r/IAXYHz2syNKxZcDHKN+62MsTaGfN8Muw5hD9sj/dXuTXZlsOHEY+s7EGRFXM+XtUtky0gJcT/wRuuy0Fnu/9g/TBaQnso0w20m4Enk497Iy1Zo29z1XZSmDfEsdjC6wsXOz9kIWzZcAzyWcnquuSeQG9G9IIkTzrYWVPYp+8bbb7KZ+Hl8cctOBQlqadCmxIeDYDLo2wfyHsxBLHYSLFujHKmmuL8bWYfg7VLVL+I/W9vRGiUo4n/knbZlvAup2qQvFfNe2TTFbU7sCXd1iWDbAbcuz9LWMLKBdF+58E9kFWn92Jr1lElSVHf0uxuvFCRGcOVgc29gnbVrsZ2N791yjHALrRydK3kzFRGpJpwC8S2Nd+7agS+34oyufvol1Dfgv5Aax9cFVz/hItZBMN4gvEP1HbatcCW/n/FKWYDfyqhn2SyaqwG7GqMCGZDPw4gX0tan8psc+bAXcnsA+yOHYR+VHXmVggpqo5f4xKlokGsAVawRvKrhk8vnWwJ9VewGSyOmwlVhM6RDe2ISZhNYFj72sRK9Ow46wE/JfFtVPI53HY+VfVnF9wzClEVD5H/JOzjVan2D0cW7QQe59lsn7tbKppwNKLiTRH9P6ixH6+NgH/ZWnYG8mn6vUeIcptClEJm6Hc3RB2A/WJ3fej1sCydth84LGEYxLV5i6GsDXAPn3u39aoe6Js2JYDB5LNBKprSrEWuxe9MGdOIaJQVZ9t2bDdCmxX5I/QJxOxTm2x91cmq9KWYVHKUEzBVpbH3s9edlaJfft5Av7L0rLbsMBWFttS7YPSI4QvvylEITZF9VqrtnuAXYv8EfpkPZSnJ2u3fZlq226PZD1sUVjsfRzP+o1wH5mA77I07Rzyc+TfVPGcdwFb5swpRG18ivgnYpvsYeAxhf4C/TELW4Ube39lstD2W+z3HoKNgKsS2MeRdm6f+zILq8Ea239ZuvZushkAzqt4zr+gcmUiATZGi5yqtJXAswv9BfpjU+CyCPsnk8WyqwiXIrQtcHsC+zhkz+lzPz6fgO+ytG0ZVskni52ovmLT13PmFCI4akxQrYXMORxiS6zyQ+x9lcnqtjuAfQnDPqTx8H89/ZVmexSwIgH/ZenbFeTX531vgHnruD8KMS4zgEXEP/naYp8udvj7Ykvshhh7X2WyWPYQ8FTCcBjxK530W84p5QV4svTss2QzCbiy4jmXAfvlzCtEEN5K/JOuLXYmYQvmg8SuTDZkywhX8ug9EffrEaxLYlGeHdFnWTNtNfmlyg4JMO91wPo58wpROVcT/6Rrg12JRctDshnWmjj2vspkqdgq4BWE4TuR9um7ffg6AFweyV9Zs+1y8iug/CjAvP8vZ04hKuVpxD/Z2mAPADsWPPZFmUV/C9RuqXhfZbLUbDVwLNUzDfh7hP05pA9fj47gp6w99l6y2ZYwTalelDOv6IPQr5mbypnAEbGdaDhrsJy/3wScYzrwe+AJBb/3B2zF9q8q90iItFgLvB44peLtbgdcStg2xyO5FZiL7Y+Xydgr4u1DONRAlmNd+m4H7sMWIa7AdMA0YEOsws3WwFZY056uswTYAztuvfgIcHzF8y4E9gIWVLxdIUaxLfY6MPaTZdPt40UPfEEm0l9TiZ9iNQ9fVeG+ymQp2xrgGKrn2YPbrmMfTujDv2Nr8i1VuxI4CTgK2JliAnYKsPvgd08E/kx3q1z8IudYzQDuDjDvH3LmFaI0JxD/BGu6/QHrPR6Sr/Th1+kM52T9d4n9k8maZqsx8VI1dZVu3KegX5OAm2vyLSW7FKtksW3B4+Vhfeyt3dewEnix97VOOzTn2Lw90Lyvz5lXiL6ZCtxL/JOryXYPsEXRA1+Q9/Xh1/cZHeH4Vh/bkMmabCvpv2lDLyYCFwb2+/o+/DomsE8p2QrgNMLVYB6PCcDB2AKrh0r63wT7F9kR8inAvADzPohaD4tAvJr4J1bT7bDCR70Yz6N4LdDTWfdidW7BbchkbbClFM95z2NbLOcwlM+fKujPAN1oPrMaOJkw0dwirI9FIq8g/jEJaa/LOQ7HBJr3ZznzCtEXfyP+SdVk+3LxQ16IR1M8mnAW45eWuaXgdmSyttj9wG5Uy1EB/X18QV+eF9CXVOwC6o3oenk6tpA49vEJYXeQXSN3AuEetF6SMa8QhdmD+CdUk+06rGpCKGYDNxX06Y+M3yJyIvZ6N/Yxk8li2TyqTz36QQA/76H4eoALAviRii2mGXmdj6Od3e0+krPfxwSa926sioYQlfBJ4p9MTbVVwEHFD7mbAayEWBGfLgU26LG9uQW3JZO10S6h2ofUjYA7K/axaLOJ/SuePyW7kOaVWDuEdr05XUx2Kb7JWAmzEHN/MfNIC+FkgDAJ512xojl2RflIQX9uITt6dXDB7clkbbUfUW099sMr9u+VBec/teL5U7GvYGKqH6YCTwbejS0yOwdbhHUbcBdW6/U64CLgDOATwEuxUmZVMICVgWxLZYdP5Ozv2wLNuxJ7Ey1EKZ5E/JOoqXYjVrQ8FE+j2CK1B4Bdc7Z5TIHtyWRtt/+iWk6vyK81wOYF5t0YeKSiuVOxFeQvlhqPDYDXYG/GyhyTezARfAywSR9+jPXpCzS/zv0istMLphOmLu9a7GFFiFJ8nfgnUVPtGX0cby+bUiwqsBITyHl8tMA2ZbK22xpsoVdVbI49eJb166qC8763gjlTsqUUr3qzPRYNfjiAP6uA32HR2vUK+jWSfYF/BPCvTst7SPxwwLnVdlj0zRRs1XLsE6iJ9r0+jreXAeDsgv682bntbxfcrkzWdnsQ2InqeH0FPn214JzXVjBnKvYQ8JQC+74xJnTrWoz7INbFrd/fzCTgOKzdcexj3Y/dj3VY68WmwLJAc88j7FtV0WKeT/yTp4n2ALBZH8fby38U9OebBbZ9fsFty2RdsH9S3SK2AeAvJf0p0hnuySXnSsmWYml2Xt5ENRH1fmw18GP6L5G2DxbJj33M+7H35+zbaQHnfnfO3EKMyw+Jf+I00d7Wz8F2sguwpIAvF2ORei+3Fti2TNYlO5nq2JfiTWJGWpGGCm15a7MCfze8zSn+FiyknQXs6fR9JNOAUxLwv6jdyvg13ocIWTHkXmBm/qEVYpiZtG+RQx12NdknehkmYgLW68t9wDYFtj+Zcjdhmazt9jKq42t9+nBHgTnWJ0zOagzzVqV4PFZhIba/Y2011rZ9jnM/RvJemndtfnHOPpV9y5FlH8s9okKM4GXEP2GaaIf2c7CdvKeAH2vwR0OG2LHA9mWyLtoiqqv3ugn9tR0+s8AcR/ex/RTNW97xaMLlh1ZlD2ECtmhg5HlYrdvY/nvtgpz9eXnAuRcTNq1QtIzvE/+EaZqd3deR9rE9xVIZPtfHHE8rsH2ZrKt2IcU7nPXi3X3M/+EC2/91H9tPzX6O73i/IwFfi9iVWNe1IuxFuOYNIWzvjH2ZRn8PfF47yXVEReeZiKozFLXVwO79HGwnvyvgy98plrc7xLEF5pDJumwfoBqmADcXnNtbjmsTml/X9RZglmNfm1p2bTXWJazIgsg5FG8lH8tOydmXrwacexn9pY+IjvFE4p8oTbNv93WkfRxVwI+l5DeX6MUnCswjk3XZlgOPphpeUXDurZzbraL8WUxbia8t+xsT8LWsXQ8c6NjXIXYkzTzlsfYIMDtjPw4IPP9nfYdTdJlPEf9EaZItB+b2c6AdzABuL+D+bQNXAAAgAElEQVTLO0rM9b0C88hkXbe/YW/DyjIAXF5g3q2d2/19H/uUkn3QsY/Pp/lR7CFb6dznIfbFcspj+51neTXgQ5ZeexirwyxET64k/knSJPtKf4fZxYkF/Dgfu3n2y4UF5pLJZPA+quHwAnN68vNnU1+jhRD2V/IfJvbB3mjF9rVq+wH+5gmHkP4ivYtz9iF0OooqNoiebEf8E6RJtpRweUI7YbUnvX7sXHK+IpFkmUxm590OVMMlzjkfIj+vtcnVGTzpIhtRPPe5SXYJsGXOMRjixVhVntg+Z9luGf7PIWzJtYWoLm8uVa3CbRrPje1AwzgZuDPQtj+N1cb1cDxwQ4m5pqAEfyGKMp3ibX574Y1EbYDl52ZxeElfYnIC8K+Mzwew9KuqysOlyGOxlJm9HGN/DHw5rDuleXXGZ3cCFwWce0Msz1uIdUipO03qtoJiHY+KUGTh4JWUb3axc4H5ZDLZaHsR1fAP53zz6f3KfzLNyO0cz24EpuYco7cl4Gdddhf2pi+PqVj769j+9rIFZAcRQ/9Ns84X0VEm0qzC1rHt1P4Os4s/F/CjSG/5XjyzwHwymWy03QqsR3leXGDOF/TYxlMiHYMqLC8yvRvtzNvNslvwVeZ4NGl3R316hu+h0xrWUt1DqWgJjyH+SdEUW012XlIZDivgx/cqmvMNBeaUyWTr2vGUZwKWmuSZ75we2zgh0v6XtV87jk2R1uptsqvwVRt4ewK+9rKv5/h+fuD58zq/iY7xLuKfFE2xIu09izCA/7Xmw/hrcubxSeecMplsfFuKv2RYFm9yzrcG2GWc71+awLEoaquBPXKOy5sT8DOmXYQvdS3VtMS7yE5reGsNPuzrOH6iI/yU+CdFU+zg/g5xLi8o4MN/VTjv/xWYVyaTjW+nUZ71gPuc831mzHc3Iv0V++PZd3KOyeaEbUPbFDsh5ziBLeZLtVTZkzP83qaG+U9zHD/REe4h/gnRBLui3wPs4O9OH+6gmpzBIf7inFcmk/W21cDelMfb/OduRldyeVECx6CorSC/4sK3EvAzBVtDdi7sEJ9OwNfx7Is5fodeeLcUq9ogOs5uxD8ZmmKv6/MY5/GsAj7klSUqShPaVMpkTbBfUp5t8HcQO2LE9/43gf0val/LORZ7E35BU5PsTmDTnGM2E3sYiu3rWLuV7OZIdeSf/0fOsRMdoOl91+uy+7DamyE4z+nD9ZQvQzaS6c55x9pqrKrHQuy4LBz8/21p9SmT9WuPpzw/c8511ojvXJHAvhexleS3ZW96i+QQ5nmoemMCfo5nB2T4XKQcZ792uePYdY4qBUUTqKK0VRf4Nlb6pWoei5UT8vBRTFRWxXbj/NtS4BrgOuAmrI7h7Vh0YUjcLs3Y5nTs1dEmwBbY4rrtgB2xhTa7YwX0hWgjH8P36jmLrwLPd4w7FDvPVpHfoSw1TgfmZXz+dMofxzZyGPbbOCtjzMlYNDO138ShWCe58fgL8ACWix6KvbGKVH8POIdInGuJ/+TXBMtbSdwvpzvnv5bquwA+Detd/3ngKKwJRR2dBucCL8ReY11A2jUkZbKi9kTKMYC/fe5bgGcnsM9FbA3519M/JeBnqnYT+U06UvxN/DnH5x/U4ENeiTTRYqajHCmPXdzvAc5hO/xpAK8O5EMKTAGeAHwQK63zIPH/5jJZv5ZXV9bDfzvn+hNWBzj2PhexX+Xs+1MT8DF1+1DOMQR7hR/bz5G2iuyFY8fW4MMiYJrj2IkW8ljinwRNsKoXig3hXVF7A91KtZkA7Inlop2GpVc0seSSrLtWtu7ntvh+82tIu7XsePbsnH0/NwEfUzdPLfZXJuDnWHtxhr87JOCDaDGvI/4JkLotIUzO6TT8NTdDVYdoErOxahb/heWv3U7834ZM1sv+j/L8MYH9qNquI3u1/v4J+NgUOyXjOIKVrVuQgJ8j7Zs5Ps+rwYef5vggWspJxD8BUrfT+z662RzjnP9u9AqmF1sAzwGOA36ERcIVCZalYCuxKG0ZXpvAflRt78jZ5zryONtiK8jv8Pf+BPwcafNz/D21Bh+WAbNy/BAt5DzinwCp2wv6Pbg5eHvDHx9o/rYyAzgQywf7IvA70otyyLphn6UcGwLLE9iPqmwp2UJja+xBIbafTbIvZBxPsOP9UAJ+jrSdMvx9VU0+vCbnuIkW8gDxf/wp2yLyV8P2w57O+VdgrTVFeTbActaPxkpHnQ5cihbIyYqbV5QtBNanHD9PYH+rsu/m7OsnEvCxafYwsHHOcf18An6OtCyxWUeb4bVYjWfRIbYi/g8/dcvr894vX3LOf0ag+cVoNsaKor8EewX4FazA+xXooVA2bKux1r9F2vi+kXKkuPCoXzskYz8nYW3TY/vYRDs+47iC1eON7eNIy8s9ruON3CryHxREi3gK8X/4qdthfR/d3kzGv1jt4ADzi+Ksh9UofgrwMqzjXezfpqxeu4rhJj0D+Dub/YNybIi96Ym9/2XtJrIXq70wAR+baveRv87jsgT8HLLrcnz9cU1+HJPjRyfoSvmn7WI7kDhLgHMCbPc5+J4sr8VyrEV8lmIL4m4Y/P8vxARwFvdi3Y42xPLoZmL5xetjAnrqoE0GJg7aBOxCvHrQVmJiZxnWnOPhQVuMpWIsxCLQiwb/ffngdxjc3hTsRjhj0IeNsRSZOcA7B8eIfD6OpcEMdTlcO/hvP3J8d19gP/oXvg9iZbqe2ef3U+E72HHrRajSj11gY2ytSVZlkO8C+9TjTi67AJti18jx+Av2FiU0R2BlL0UH8BY276pltW4sg/fp9f2B5hfl+SL5f7+s9ssp4FnIch1WK/oMrCXovY7vtNEeNc7xG8DfpfJ/M/4OHt6awDEoa7tm7N+WqAFSWcvLSZ2Dv8lRHZa1GPwJNfmwFAs+iA5wCvF/9ClbiNq3s7BoXd7cq7ALlEiT9+H7DWV1FYqNR7yO94ZjBrbo8nnAmY5ttMFm9jiGr3d+/34s2t4v2yVwDMrYZTn7994EfGy6rSa/DN5vE/BzyD6X4ec06kvjCVWFqTFMiO1ATcyN7UDCrCW//WU/HIGv6sPvgDsDzC+q4XbnuC2DelGOZY4xk8f5t4eBK4FfkC9kwNIufg3cjNVIbhoPY9Hw8fgeJmbz2Ah7QOiX+cA1Jb4fm7wmHK+sxYt2M4H8nNS8Khl1ckDGZ8uwtsh18Pya5kkW5fCKywgjOI90jvt2gLlFdRQRvFeHdKQEHsGbdy0cTxCP5RYsbx0syrk91kJ0OywitRX2NmMLLK9vY+d2PSzDItn3YA1c7sBWgM8ftFdg9ZqzyPpbP4J1jvqgw5ejgZ84xvXiN4yfWtEEsqrN7AnsVZcjLecYLLd8bY/Pz8TOiRQaGe2DpQX18vUyrIxkaJ6d40fr6Yrg3Sa2AwnzhwDb3BB4hmPcEix6JtKlDRHeFY4xecLTI0xXjPnv68hfpT20yG4mw4v8pmGCeRLDq/3XYOk/Qwv7ljIckX0QE6RZeIrPL8j5/BvAf5L/ZvBQbJ8WOeYcj98B7+rzuzH5B9ndtV5SlyMdYHus6c7FPT5fApyPtWiPzQxs8Vqva0FdEd7NMfHteVvVSrogeNenXE5Z2wkheJ+L75j/gvQXPHUdr+DdKqgX5ahL8K7MH7IOQ9UovMe5Xzx/nzwf5mO5kYfmjJuK5Que5phzPC7AjmVV0e+6yFv8++JavOgOh9Nb8AKcTRqCF2B/4gtesOPRWcHbhRzelBfTxGYl8KcA2/XmCqnZRPo8gpUDyyPlCO9yx5i8h3/PA1w/grcuPH8fj+jOK6Q/hDelaTyWAn8t8f1Y/Czjsz2A3epypCPk3Wd+XYsXPvbL+Oyf1Jfzn8oDQBS6IHiz+pl3nb9SfYR1Cr6T6mEsV0+kj0cIpRzh9QjeqlMaUmNrx5i8lAaw9r+exWtPp3fFBw8XlPhuDOZhwqUXddRa7Rq7AztlfH4DcGNNvuSRJXiXYM1K6uAJWIpFJ+mC4FWEtzfnBtjmwcAGjnG/xbeYSMTHI3hTjvCuyh9SyaI1j7COwVAjkDw8f+eV+JpQTKFc98YQb55CkrcW4fBavOgeeVHes2vxIp99cz6vK61hMh3uatoFwasIb2+y8p/65dnOcVmv/0RaeCJ/nghiLDypBrFyeOvAG333/J0BfuAcV6YM0sU0azX5bzM+24LsCJ/on7wHiVQE74Zkn4dZbweq5ik1zpUUXRC8nmhjVwkheD3pDKsIU/tXhMET+duCdNv3xqjSkBLehxHvwrmL8JUyfDb9L4x+kObU411Bdmv05zBcbUNUy+PJfntxPum8ScwqtZdXzaVKJHhbTBf2sR9uwLcYqQhbY3lVeVyMFekXzcAjhCZiojdFPJHXKlIamix4V2E1fD2sAX7qGDcLyxnsl7+V+G6dXIjlYfaiTGqHyGYS2b+xZcClNfmSRyqCd186mscrMdhdQkR3n+Ycl/X6T6SH91V3qgvXqkhp8EQqmyx476TYSvG8ElxD5JUwy+KSEt+tk6zr2URsAZ8IR17E8s+1eJFPluC9nvoqNeQ9JLQWCd7uEuJmcrBznKozNIum1+L1CNE2R3irqME7lvOAxY5xZcog/aPEd+vknIzPDqBctQqRTxsE7zLg1rocAZ5c41zJIMHbXa4IsM2DHWPupzk3MmF4xVCqC9fqWrSWquCtqiTZSFbia1qzN7BJwW0PUWd90n55kOwV9t63XqJ/Hot1KOxFEwQvwLW1eGE8sca5kkGCt7tUvSp0W2CuY9wFpH8TE6O5H9/CjyYL3jZHeD1/l346vXne1AwAh/SxbbAa4anUUe3Fn8i+nimdITyTscVrvbiH+urcZrE5MDvj8zoF7/6ku8g4GF0QvE0qbVMXt9J/n/teZF1wRnJ+xfOKemhy8wmP4J1I9kr6Jufwev4uRSO8AL93jutX8AJcVeK7dXBexmfTgcfV5EfXyctJTSXKu3PGZ7fU5gWsj3X/6xQSvN0kRM0/r+A9L8DcIjxNrsXraTwB2aK2qRHeqfhSCvoRvDcD8x3jypRB+leJ79bBeRmfHYSvJbUoT16d44tq8SKfuRmfzavJhyEOqHm+6EjwdpMQURNPJGMRcGWAuUV4mhzhrULweiK8KTaeqLoG71g8b2weBWzU5/brLNdUlMVk5+8+qS5HRK7gTWXdyNyMz+bV5MMQErwtRPmi61J1XtwUbHFKHpegv0dT8UQAUxW8XiFaVvCmGOH1Ct5+IrzgawE8gP8N0Fiu7/N7dZB3PZPgrY+tgU0zPr+KNIJfczM+m1eTD0NI8LaQFH7kqVG14N0T3yvfv1Y8r6gPjyCaDmwc2pE+6HJKg0fwrgXu6HP73tzIg/rc/g19fq8O/pLx2SSUv1s3WVHepVgKTmzmZnz2EPU2ZNoDS3nqDF0QvIoorkvVgnd/5zgJ3ubijQCmmMe72jmurOD1Cus68UTd7wOW97n9a/AtgD2wz+0/iP/vVzdZgndvbGGQqI+8tIYU0um2z/l8Xh1ODDIJX2fU1tAFwZvqxTIWy+g/X68X+zrH/b3ieUV9NLkWr3J4s+k3nQEsOuw5rx9DdhWMXkwhzfJJa8nuVtlvRFv0TxME73Y5n8+rw4kR7FXzfFGR4O0e86g+zWNPx5i7gbsqnlfUR5MjvHWlNKQY4Q1Vg3ckHsG7IbBDH9tONUp6I/BAxuedy49MgLxoZQoVP6YDm2V8fmddjgziWXvTGrogeJXSMJqqo7sAj3aMyVrNLNLnLnyCLkXBW8WiNU+UsamCt0yEF/zn9j59bDtVwZu36l+Ct352JFvTpBDhBZiT8VndglcR3pahCO9o+l2c0outgVmOcRK8zWYNvovxNqEd6QOvEM2K4rY5wluX4O0nmpSq4L0047NZwK51OSL+zVSyF4VdTxoLS7fI+EyCNyBdELyK8I6masGb1x98iBReJ4ly3OYYk2JpsioWrXlyeFN7uJ5E9uvTIcoK3hvxLXrzpD6NpYmCd3/6y1cW5cl60FhN/Tmy45EleOtO+9uUNCvrBKELgje1m1Bsqha8Wa0SR3JNxfOK+vGkw6SY0tBVwTsHXypG2TSnVfgaRPTTyjRVwZuV0uBdxCuqJy+yXmf73l6kFOGFDr2N6ILgTfE1Y0yqfoL0CN61wLUVzyvqp6nthbsqeEM3nRiJ5/zegeJ1P1MUvLdg5dJ6IcEbjzzxlkIt3pQivCDB2ypSuwnFpurC1js5xtwOLKl4XlE/HmE0A19Od514H3qzoqGeSGlq1xpvekkVC1k9gncivuvFSFIUvP/M+byfxXmiGnbJ+Tx1wXs39TfLkuBtESnWxoxJVmSiH+Y6xtxU8ZwiDp4cXkhv4VpddXhTWy/gEbwPAYsrmMvbzMabAjVEioI3a7X/dGC3uhwR67BtzueppzSsxtfIpUokeFuEUhpGU7XgzSukDWlcZER5vJHA1ARv2ZSGifgWIaUmeOuo0DCEV/DuWHC7TRO8e5Bmo4yukPebTyHCu2nO53W2F4b8qHhr6ILgVYR3NFUK3tnABo5x8yqcU8Sjqc0nykZ4PdFdqP9VZB51Cl7vQ21ea9WxpCh4syrO9LMwT1THNLIFZQqCd3bO51kNTUIwt+b5oiHB2z2qfF3izRGcV+GcIh534ItiNjXC2ysy5xW8qeE5P6sSvHcBSx3j5hbcbmqCdwVWz7UXniY8IixZ159F1B9BHUtqgnc9fOULG08XBK9SGoZZS7WFt7M6xowkRHc3UT+rsEUVebQtwtvUV9R1Cl7vtvJyLMeSmuC9nuzfkyK88cl74I5R+msk04EpGZ/XLXjBl5rYeLogeFPorJIKVR+LrOT7kcQotSLC4Fm49mSKC5tQHAi82jm2l+D1dFkDOBF4LXZDi82b8EVTqxS8nt9G0eh/aoI3rxqFBG988n5jKdyPsqK8MQTv3Ahz1k4XBK9SGoapWvB6X4PEfqIW1eGJ1u8IXIFfaFbNFsC7sJa3FwMvcH6vbIR3H+AULPXjG8DjnN+rkm2Bs4Cv4bu+eytvePCc5xtieZZeUhO8WQ02ZpDOg16XaYLg3TDjM0V4AyHB2y087T+LsIljzErinMAiDN6I4IbAaZjgfFYwb4bZEngz8AfMx88DexfcRtlFa0NsCLwB+DO2mOtE4AmETY3YDvgS9sr98ALfqzLC601d8r4ZgvQEb1aEtzPlnRInLxDjScsKTVaEt4oygUXpxINaUxdjFKFqkddkqhb/GznGPEB6q9dF/xQVSAcCvwGuBk4FfgTMr8CPmZiIfAomqKso9h8ih3cu8N5Bux/4I3AucCFwFeVKmW0GPAc4CngG/QUwqhS83sjZ5vgXsqYmeLMivJ0p75Q4eWW/Uo/wxmjS5F2P02i6IHgV4R2m6oi+R/DGXhErqqXfV+C7Y5HOEzHx+yfgUuAaTADfxbrn6gTs5jUHa0u7M7An1rp1N6r/PfcStlVFZjcGjhw0gIexmq7/Am7AosF3Y8L4YYYXR62HnWtbYcfh0cBjsHxRT33gXiyh2jKF3siZ583QEBK8oih5v68UBG9WN8oYgrfIW5fG0gXBuwKLMJa5MbSFqv/eMx1jlM7QLqqouLH7oI1lCfZGZgBbxVy32AkteMcyA8vzjZHrC9VGdwHudY7zPCgPkZLgvRfrTNcLpTSkQRMivFkLWx+uzYthFOFtESuAqbGdSICqb9yem5EivO2iapE0kvWJK3B6nR/eKg1No8oFa+AXvHl1SEeSkuDNa1pQtG2yCEMTBO96GZ8pwhuILixaA+XxDlH1A84MxxhPMXrRHBbQ3pzsuiO8san64cX7Nicrf3EsTRK8O9XihchjA9KrczuW1CK86+O7nzearkR4f0Z2zkxXWA68nNFPl+OJF++/be6YU4K3XazAInlt7MzTtk5reVQteL1vczztyIdoiuDdkGJCXoRlU3qnX1XZbbRfsiK8MQQv2DGLNXcttPVCPpZY9UBT5C58QrUqJHjbx210S/AqwutjaKFd3n2liIhNSfDelPHZ9rV5ITzMorfgXYy1G495XmdFeJfV5sVoZmMLZ1tLV1IaRDweie2AqJyQebxVcxnwbqwSQh5lBe+3yF7UlBpV5/CCb/+9negmktbai6wI7w61eSE85L1FiH2eZkV4Y1WWKrKYtJFI8IrQrI7tgKicEEKpKtYClwAfxkqX7Qd8Ad+rurIpDcdib09eDJxBnALy4F88FuLBxSMkvJ3WUoruQnb9aEV40yJP8MZOa8h66IsleIssJm0kXUlpEPEoU1hfpIlH8N4FvA4Tf4eRv3K6X9ZgdX0vAs4DzgHuG2ecZ6FdmQjv0O98GfCTQZsCPAl4JnAIVj841DX3DuBM4PtYiaGfOL4TQvB6RH7WgqKRpCR415Bdkm9uTX4IH3klMyV416X1EV4JXhEaRXjbh0cobYp1WPsV9iZpb+CJwAGD/70z/kgfWC74AizH7EZM5P4TuILqIqllOq2N9ztfgbU6/sPg/18PaxjxGGAvrHHELvjqWY/lNqxxx0WYyL+CYVH/Dsf3lxJmtbonkj4LX0WDlNqd3k22EEnJV5Ef4a2y4Uo/ZF1TVtTmxWgU4RVCiDF4IrwTsUjjAiw6dtmgDTGALXzbAossrD/4nVVYlHQJJsoWYRHbsrUpy0R4PddJz4PdUuCCQRvJbEwwbY49KMzCSgRNw47dMixV4G7s2N9IdurA1g5fQuVhe/5OT8M6yzWJW3M+36YWL4SX1FMasgRvrAivypIJURL9xtqHVyxtnTF2LSbgvO1oyxI6paHMm4yFVNugxSO+QuVhxyiaXwd5x0uCNy1SX7SWouDNWkjXCrRoTYTGm68nmsPt+ARk00RALMFbNZ4IbyjB29aqLFkR3unAxnU5Ilzk5X/HbkaVpb0keAMhwStC09a2rF1mBXCPY5xHeNVFyhHeqvE8aIRKaWir4M1asNa0B7sukBdoiVXrdogUa3untEg0CF153fwJ4JjYTiTCJ7DOc1VwBfkrOyV428lt5DcwSUkIeARvrwBAkSoNsZmA5U7nESrCG2vBTWjuyvgspQc7YeTVb44d4U1R8LY+wtsVwTsd2Cq2E4mwiuqiO56LRkqF40V13IZVG8giJSFQJsLreROWSoR3C3wPmaEEb2whEYo7Mz7zPGCIemlyhHegNi9GU6RqTiPpSkpD7B93SlS5ElOCt7t4HpqaFuFtQ0qD95iHSmloa4RXgrdZ5N13YmuCFAVv6wOgErzdI2/1ahE8gleL1tqJJ0LYlghvk1IavIJXKQ3FyBK8W9TmhfCSekqD53pUNymmWVSKBG/3qDLC67m5KcLbTjyCaQ7pXETL5PA2KaXBI3gfJlzh/VgrzEPyCNl1WxXhTY/UUxqyrheK8Aai9Ts4SOwfd0rUndKgCG878bwSnwhsSbhoYhG6EuGN2XQCbI2Ah/dg1+VVGfZFYPsAPhYlr1a0IrzpIcFbnFSCE8GQ4O0eivCKKvCK2G0KjA1JV6o0xGw6AX7B+1Xyr8snlvSlKu7N+TyvWomon7y3MrHfyGSdJxK8gehKSkNba0P2gyK8ogpuxyfyUlm4FrpKgwSvUeVxSKUuaJ7g3bQWL0SVxM6hzRLcsYJEbUxHGkVXBK8ivMMowiuqYBXZtUmHSGXhmnJ4hwkpeKs8DqnUBc0SvAOoy1qK5EVJYwverAhvrCBRW9uC/xsJ3u6hKg2iKjzCKZUIr4em5/BOIm7TCehehHcjOvAquIXEFrxZD4ax7plZCzNbQVcEr1IahlEdXlEVTRK8ZSK8npy6FATvVviu6U0QvJNI52E5S/AqnSFNFOEtjgRvS5DgHUYpDaIquiJ4mxLh9aaPhKzSUJWQSCW6C3BfxmcSvM0ktuBNMcK7MNK8tSHB2z20aE1URZMEr4emC97YTSegnYL3gYzPNqnNC1GE1CO8WWmWse6ZWb/zViDB2z0U4RVV4RFOm5PGQ0/oRWtNEbyLgMWhHamAVBasQXbka3ZtXogi5J2PsQVvliaR4A2EBG/3mEx1J5QivN3GI3gHsNzS2EjwGqFrIldV2z2lCG9WVzoJ3jTx1oOORZYmiRUkuj/SvLUhwdtNqoryatFatynSfCI2ErxGaME71zkuT5CkJHgV4W0eeTVlJ9fiRW+yNEmVb2GLIMHbEiR4R1NVaTJPSsNEuvM76xp34StWnoLg9SDBWx7PA+4a8gVvSikNivA2jyYL3lgPe1mLM1tBV4SI6vCOps4ILyjK21bWYB3X8tg2tCMOFOE1bg3sg+dc91w3UhG8q8nOeZbgTZO8ByoJ3nWR4G0JK0mnE1IKVCV4PRFekOBtM22q1FBG8MZeBDMVX4ms0BFeT86+57qRiuBdRPbfVoI3TRThLcYatGitVSitYZi6I7xauNZePAJKEd7wbI2vQUZTIryp5PDmVbSYWYsXoih5greqxZX9sjTjsxg5vA/SgaCgBG83UYRXVEWbIry9BGMTBK/3oUKCtxgP53wuwZsmivAWI6ubYGvokuDNeqLqGorwiqrwCKgUBG/o1sKxUxo8gnctYbusQfsEb16Et6oFwKJa8tbtxBa8Wb+rGL/9eyLMWTtdEryK8A6jRWuiKjwR3tmkI2CyaHKE1/NQcTf+tzL9UlUObyq/FwneZpIX4IoteB/K+CxGSoMivC1DEd5h6ixLBorwtpmm1OJVhDf8gjVoX5WGvJQGCd40ybvfT6/Fi94syvgsxkJICd6WoQjvMIrwiqrw5oQ2QfCWifA2QfCGzt+FbqU0TCN+pFCMT979PvYDVVaEd8PavBhGKQ0tQ4J3GC1aE1XxALDEMS52pYa2R3hTaDoBvrc5bYnwpiLKxbrkRXhj/76yIrwSvIHokuBVSsMwWrQmqsSzECq24PWI1jKCN3YOb5MivE3K4U1tNb3wkbLgXUZ2FQkJ3kBI8HYTpTSIKvEIqdiC10MvYZt6hHc2vnNaObzFyRK8qbVvBvUAACAASURBVPgo1iXvjW7Mh5Ws6C7EyeGV4G0ZSmkYpu6UBkV4201TSpPl0dQcXu+xrSPCW1VKQyrRUwneZpK32DDm3y4rfxdgVi1ejEaCt2VI8A6jCK+okqZ0W8ujTIQ3ZkrDds5xqaQ0tEXwxl7pL3qTV04upuDNivCuR5wAkQRvy1BKwzAqSyaqZL5jTJMjvB5Sj/CuwOrwhqaqHN5UoqeK8DaTvLSBmH+7hRmfxcjfXQ3cH2He2umS4PWsJO8KivCKKvFEeKcBm4V2pCRNzeH1RM8XUI+PivCKFMhLG4j5+8qqebtJbV4Mcx/xq8zUQpcEr1IahlFZMlEl3sVQqac1NLUsmSfCW0c6w0R895QmLVrLalErwZsuKebJDpGa4K3jzU8SdEnwKqVhGJUlE1XiFVOpC96mRng9Obyp5O9CsyK8WQ/1uq6lyRryF63NrMORHqQmeDuRvwvdEryK8A6jlAZRJcvwtaZMXfD2InXB26QavJD/ZmhigW2FJqteaio+itE8TPb5OAOYVJMv43Ffxmcb1+bFMIrwthBFeIeZQjUtMbVoTQzhWbgWU/B6RGsTF61NBLZ0jEulJBnkPyinEt0FRXibSMrpDJBehFeCt4Vo0dpoqqjUsALfjV6RkPbTltJk41FGCIdmK0z05pFShDdP8KaSvwvZglfXtTTJqoIAErxjUUpDC1FKw2iqSmvIeuU3hCIh7acN3daamMPrrcHricCXpaqUhpQivEppaB4P5HyesuBVSkNAuiR4ldIwmjrzeHVjaD9tELxNJKUua1VFeFMSvEppaB55gjdGrduRZAnMzWvzYhgJ3hYiwTsaCV5RJR5BtRnxfgtlcnhTTmnwRHjvo57rX1U5vE1JaYi58En0JuUI7wqyUy5i1CpXSkMLUQ7vaOqsxatISPvxvDIfoBkd15pEKiXJoJ0R3qyW0RK8aZIneDeqxYvxyROXMQSvIrwtRDm8o1GEV1SJN0fUm3NaNSlHacvgeYCoI38X2pnDmyV4PYsFRf3kCd4YC8OGyBK8A2jRWlC6JHiV0jAaRXhFldxDdleqIWIJ3rbiOZ51Cd42liVbnfGZIrxpkid4YywMGyIrmroR9f+mHsRfXrTxSPB2lyrKkoEivGIYz6tzRXirxbMQMLUIb5NyeBXhbR5ZjR0gboQ3S/AqfzcwXRK8jxC3G1JqKMIrqibl5hMplxbrl9n4HlyVw9s/ErzNI0/ESfAOc1eEOaPRJcG7FuXxjkQ5vKJqVJqsXuY6x6UW4c17SFaEV5Qhr815qikNWrAWmC4JXlBaw0jqFLyK8HYDj7BKOaWhaRHelJpOQDtzeLMEb9fun00h5QjvnRmfbVGbF8MowttiVJpsmDpTGhTh7QYeYbUNcfJpy8yZqhD2CN6l5Oc0VkUbc3hT/duL8VmJLcTKImaEN0tgxhC8ivC2GAneYZTSIKrGI3inAHNCOzIOnmtd08TNXMeYuqK70M4c3izauhCyydxH9nk8jeruff0gwRsRCd7uokVrompSrsUbOsIbQ/ykVJIM/Od5k+rwStQ2i7x0hhiiciRKaYhI1wSvFq0No7JkomoWkF23dIhUBW+ZCG+qgndeaCdG0MaUhq7dI5tOnuDdvBYvxucRYFHG5zF8U4S3xSjCO4wWrYmqWQXc4RjXNMGbaqrDXMcYpTSUI+t3o+hvemRFUCFuhDcvmqoIb2C6JnhVpWEYLVoTIZjnGBND8JbJ4U0xpWEG1pkpjxRTGtoieEV6NFXwDqDGE8GR4O0uivCKEHgE1tzQToxDmWtdioI3tZJkUF0d3qYI3qySZSIOeW+YYqY0ZInxjYHJdTkyyEJ89+/W0DXBq5SGYRThFSFItRZv6Ahv3cx1jktN8K7BUl+ySCmHV4K3WaQc4U1twVqn8nehe4JXEd5h6ozwTkRdibrCPMeYNubw1h3hnesYs5J8AVAlHsHruV6kFOGdlPGZZ4GmqJe833vMCG9W9DlGqUYJ3pajCO8wU6nmFYonwgtKa+gKnoji+tRf/L1MhNcTyav7Wup5aLiNeqOQnnPcc71oiuBVhDc98gRvDGE5hARvZCR4u00VUV5vDpDSGrrBPOe4uQF9GA/Pta6XgPFEeOu+lm7vGHNLcC9GU1WEN6WUBkV4m0We4N2qFi/GJ8s3Cd4akODtNnUKXkV4u8Gt+ATi3MB+jCV0Dm/d19K5jjHzAvswlioE70TndupCEd7msJDstMUB0o3wblmbF8N0qiQZdE/wKod3NFUIXm9KQ0o3MRGO5fgupHMD+zEWT45tLwHjETYp5vDOC+zDWDwPtU1qOgGK8DaJ23I+34z6KyGMJLWUBgnelqMI72gU4RUhmOcYMzewD2PxLJpsSkrDDGATx7h5gf0Yi+ehtkklySBbIH0WOBlFelNhQc7nW9fixfgsB+7P+FwpDTUgwdttFOEVIZjnGDM3sA9jKSN4U4vwevJ3IU3B26SmE5Ad4b0XeD1wEHBJPe6IDPIEb8z83bxoqgRvDUjwdhstWhMh8CyWmhvaiTGUWbSWWpUGr+Bt4qK1JqU0DPE3TPS+lo51rkqMlAVvXkMMpTTUgARvt9mggm0opUGMZZ5jjFe0VUWbIrxzHWNWkH+TrZo25vB6/65rgVOBXYAvkd9cQ1RPyoL39ozPZhLnd9+5hzMJ3m6jlAYRgnmOMesDmwb2YyRlBK9ncVKdjVU8Dwvzqb9DXBU5vFU1xKmKor/RRcA7gX2Bc6t3R2SQt2htm1q8GJ8swRtDiC/Ef+9uDRK83UaL1kQI5jnH1Rnl9QjSXsK2iSkNdaczQDtzeE8Dvk7xRin/Ap4KvJR8ISaqIa/pTYwOj0OkVpKsc/m7IMHbdRThFSGYj08kzg3sx0hCR3jrvJbOdYyJIXirSGlITfBOAN4IXA+8heKR/B8CuwGfxB8cEMVZi9UAz2LbOhzpQWoR3s7l70L3BO/DsR1IDEV4RQhWkH2BH0IR3v5QhLd+NgK+AlwKPKngd5cCHwb2AH5ZsV/CuJvs39YE4pYly7oeKsJbE10TvI+gmokjUYRXhMIjuOoUvJ7V9r0Er2cBUl05vJtgi1zySFXwNq0O71j2Bi4AfkDxyNxNwPOAw4AbK/ar6+SlM2xJ3KYTqUV4JXg7wiOxHUgIlSUTobjZMWaH4F4MUybCm9KiNe9Dguf4V02bI7xjeRlwLfABir+9Oht4NPAhlGZXFXmCN2Y6A6QX4VVKQ0fQBWYYlSUTofBEGCV4i7Ojc1zdEd4J+I5BWwQvWMDgBOAqLGpbhOWD390NOKNiv7pIygvWHsTSWnqhHN6akODtNkppEKHwCK5tqU8oeubplbqQkuD1RHgfIruNaQi853fT6vB62AnLzf3l4H8XYQFwFHAIcGXFfnWJeTmfxxS8eesZlMNbExK83UaL1kQoPK/UJ1NfbUxP/l6ZHF5PjnAVeKLiqebvQvNzeLM4DCtH9kmK78d5WO3ed2ARQVGMvOtN3Y1uRpJVkmwA2KIuR0YgwdsRJHiHUYRXhOIm5zjvK/qytGXRmud4eY99lXgfaNuU0jAeU4EPYvm9RxX87mrgJKxb2ynU3zikyeQJ3jrTp8aSFeHdlDiL6ZTS0BEkeIdRhFeE4i6y89aGqOtG5BG8ZVIa6orwpip4q0ppaLrgHWJr4P+A84G9Cn73XuB1wEHAJRX71UbWkJ/DG1PwZrU8jlUqrXNthUGCt+tUIXhX4otEKMLbPVKq1FAmh3el47t1CN4p+G6QTRa8TczhzeLJwD+A/wVmF/zuJZjoPZaOChQnd5D9u5pI3CoNWYI3VlthzzWtdUjwdpuq+tZ70hokeLuHR3gVXeTTDxOxXLk8egneVFIa5uK7ZscoSeZ9g9PmHN5eTATeinVreyPF7rtrgW9haQ4n4fstdo283/s21PcGZjxSE7ydTGeAbgpedVsbZhrVXAg8aQ1KaegeHsFbRw6vN0euV+pCKhHenZ3jYjQ1UEpDPpsAXwf+Bjy+4HcXYQva9sUWuIlhUs7fhewc3hgpDZ19W9BFwasI72jqWrimCG/38AivlARvL2GbiuD1RMNXAreGdmQclNLgZz/gQuA7FF+h/y+shNlRZEcOu0TedSZmhQZIL8IrwdshJHhHU9fCNUV4u4dH8M4ENgvsR1nBm0pZMk+Edz6+RXZVU1VZsi4IXrAUm1diaQ7vo/hK/TOwphWfxL9wuK3ckPN5HWlTvVgG3JfxeQzBe2+EOZNAglcowitC4X217n1V3y/eh60yEd46Sgt5btwx0hlAZcn6ZQPgM1jTiWcV/O4S4MNYm+JfVexXk8gTvKGvL1nkNZ1QDm+NdFHwKod3NIrwilDciu9haJfAfnjFaC9fUxG8nuOUd/MPhXJ4y7Er8BvgZxR/BX8j8NxBi/XAE5O8fY4pePPSTmLk8M6LMGcSdFHwKsI7mroEryK83WM1vooBofN468jhnUDY6+kUfKWVmix4JxOnCH9KPB+4GvgYML3gd3+FRXs/THfuc3cDi3PG1NXcZjyyIrwzsJSuupkXYc4kkOAVG1SwDU8UTxHebuKJOIXuc+8VY2UEL4T9je+Ir/RZLMFbRVmyruTv5jEN+C+sW9uRBb+7HMvr3Q3L8207eb/3LYn71iC1BWsgwdsplNIwGkV4RUjyOiABzAnsQ1kx5m2fHTI66X0te31AH7KoIsLb1XSGXmwL/BD4A7BHwe8uwCo5HIJVdmgreb/3mOkMkJ7gXUl+XnFrkeAVWrQmQnKnY8zGgX2oS/CGjPB68ndX4HvACIEEbzieClwOfBGYVfC752G1e9+B1fJtG9flfB6zQgPAbRmfbVObF8PchrVi7iRdFLxKaRiNFq2JkCx0jAmdx1a2ZFYKgtdzc7yZOCXJQII3NJMw0XoD1mrY0zlwiFVYl7ZdsK5tnlbwTSEvwrtrLV70JivCqwVrNdNFwZuX4N41FOEVIVnqGDMtsA9lBa+3zmnI37inVnHMRgRV5PBK8OazKXAy8FfggILfvQcTywdh3d7aQF6EN7bgzYrwSvDWTBcFryK8o1GEV4TEE3H0LMYqQ9kasSkI3tmOMfcHnD8PRXjr5bHAxVjEtmjjlkuAA4HX0ewmBKvJb18eU/CuILurWYyUhnkR5kwGCV6hRWsiJB4xG/o1fFkx5k1pCPkb90TBPdH0UFQheFWloRgDwGuw1/rvoli3v7XAKViaw0nES4Upwzyyz83JxC9JlpU+oghvzXRR8GrR2mhUlkyExBO1WxbYB289015+eP0LKXg91+qYuZlVdFpThLc/ZgGfB64Anlbwuw9iucH7AudX7Fdorsn5fAfqafndCzWdSIwuCt4V+OtqdgFFeEVIPBUYQq8e9+YI9/odr8V3zQj5G/fMHzoXOouyedIgwVuW3YFzgB9TvLb1lcDBWCmzmLngRcgTvCnn704jfHWa8ZgXYc5k6KLgBaU1jESL1kRIPDV2Q+cRVvG63RPlDSk4PdcsT55vKDzHeA1WMaAXSmmohhdhYvAjFP9NnoE1rTgBfypPLPIE7261eNGb1Co0rKDDNXhBgldo0ZoIy1zHGE+t3jJ4hVSWqI0teB9wjNky4Px5eARv3nVCEd7qmA4cj4nCFxT87hLgQ1izi7OrdatS8gRv0WYdVZOa4O10DV7oruBVHu8wdQneiYRfjS/S41GOMfMC++DN4X2kz8+GCCl473CMiblAx/NAK8FbP3OBnwK/o3jE80bgMOB55FdDiMG1OZ/vXosXvUmt6cS8CHMmhQSvqCulARTl7Rob4sslvCGwH2UXrUH8esLzHGNmANsH9CELT4Q37zohwRuOZwD/BD5L8YXKv8SipR8mbiWQkdyBLbjrxQDxUxqyBG+MtsLzIsyZFF0VvEppGKauCC8oj7drHOgc96+gXvhTGspGeL3Cuh/yollDFG1GUBVVpDQohzcsk4H3YGXMXk2xbm3LgU9iIvKH1btWmKtyPt+Wau5tZVCENzG6KnjVbW2YusqSgSK8XePJjjErgKsD++GJHK6lfIQ3pGC70jnu4IA+ZKGUhuawBXAacBGwf8Hv3ga8FHgq4R9Us8gTvLHTGZaTvRhXgjcCXRW8ivAOM43yubWK8IrxeLZjzD8IXybQI0TzIrixBe9CfKkfhwb0IYsqUhpiR+S6xuOwrmvfBDYp+N1zsdq97yR8WcHxSF3wLiC7LrYEbwS6KniVwzuasjeaFDpRibTYBtjPMe7C0I7gixzmPQTHFrzgO1bbESetQVUamskE4PXYw9TbKBb8WAV8CevWdir1Nj7JE7x71uJFb7LSGUCCNwpdFbyK8I6mrOD1RniV0tAdXuocd05QLwzP7zvvmuC5ZoQWbL93jnt1UC/GRykNzWZDrMXwZcBTCn73HuC1WMT4bxX7NR5ryU+neHQNfmSRJXinU3/TiRX4Kr20mq4KXkV4R1OX4FWEtzt4RNcS6mlnWkWE1yN4Q7+S/w3ZjRuGeCXV5OYXQRHedrAncB5wOsVrxf4VW6j6esI2k5lP9jqcCfjKIYYkS/CqBm8kuip4tWhtNHWlNCjC2w2ehC/C8ht8DR3K4vl95z0Eex6SQwvehcAfHeM2AN4c2JexqCxZu3gpcB1WiqxIoGItcDKW5vBlYHX1ruUu4NyB+BU/VKEhQboqeJXSMBpFeEWVvMs57oygXgwz0zEmT9B6HpLrWHT1Pee491FvlFdlydrHesAnsHzZ5xX87oPA27GFbVW/xckTvLHTGUCCN0m6KngV4R1N2RujIrxiiD2AIxzjHgR+EdiXITyCN++a4Llm1CEwf4xFevPYBIvO1YVyeNvLjsDPsTbDOxf87pVYqbyXAbdX5M8/cz7fu6J5ypBaSsMtEeZMjq4KXuXwjkYRXlEVH8dX0P571JPOAD4hWoXg9QjrsjwCnOIc+27qW62uCG/7ORRbLPZpit8zTgd2BT6FP0DSiytyPt+r5ParQBHeBOmq4FWEdzQSvKIKngK8wDFuLfDVwL4MsR7WYSqPh0p+DvUIXoAv4hMNk7EHizrOu7I5vNPp7v2oSUwB3o/l976i4HeXAB/EUg7O7nP+R8ivRx1b8C4h+y2MBG8kunqBUQ7vaLRoTZRlMvAV59izgWsC+jKSWc5xecXzPcX1vXOV5Xb8Ud69sKhaaMqmNCidoVlsiT1M/QnYp+B3bwAOAw4Hbir43avIXgi3PpaCEZNbcz6X4I1EVwWvUhpGowivKMtxWP6uhxNCOjKG2c5xTRK8YKkj3gf3d2LiIhQD+KLoErzt44nApcDXKF5b9hfYNeM4fI1dAC7P+XxPfClVIckTvNvW4sUwqsE7iASvAEV4RTkOAj7kHPtb4KKAvoylKsH7oGMbU6gvD/VO4JMFxn8b2CmQL94H2SzBq/zd5jIBeBNwPVYOr4iuWA78D7Ab8EPH+MtyPt+3wNyhyBK8G1DvgzGYP3V2wUsWCV4B5VeXK8LbXTbBFqRMcoxdA3wgrDvrsJFzXF7lgwcqnq8KPkt+i9UhNgR+RpjSad7zOuvBWBHe5rMRlpt/KRb5LcJtWO3fp5L9m84TvEXTK0KQtWCt7uguKJ3h33RV8GrR2mgU4RX9MBU4E9jOOf4U8l9JVs0mznF5gvZ+53bqFLwrgGPwdV8De338faq/7nvPa6U0dIN9sNze72O5vkU4d/D772Ldty5ryC9JlnqEV/m7Eemq4F2KQvwjUQ6vKMoA9prcG8m5D1uhXTfevMI8wbsCX85s3RGcvwMfLTD+cCwyXCVVpDRI8LaPl2PVHP6TYsGOVVglkl2AUxm+V19H9jk4kTSaTmQJXkV4I9JVwbsGK28iDAleUZQvYq8gvbwDf5S0SrwR3vscY+51jAmVJ5vFJynWzepd+LvheZDgFb2YgVUJuRKr41uEe4DXAo/DHuwuzRm/O1beLjaK8CZKVwUvKI93JGUF7yrsISIPpTS0g49gbUO9/Bj4QSBf8tjcOe5ux5h7HGPqTGkYYg0WTfMI8iE+B7y6ovm957VyeLvLLlg5wp9TvGzYX4EDsWoOWezfh19Vsxbl8CaLBK+AahayePJ4FeFtPu8Dji8w/lbgDWFccbGFY8yD+N5SeESxV2BXzR1Y+9asGqUjGcByql9SwdyK8Aovz8MWpf0PxSpzrAHm54zZr1+nKuRusu+FErwR6bLg1cK1YeoSvIrwNpv3AJ8pMH45cCT5FRBC4nmFuMC5LU8ty1iCF+APFKuCMRFbWHRkyXkleEURpmJlDK+jWFpUHo+pcFv9khXdhfpTGpajGrz/psuCVxHeYcqWJQNfhEwR3uZyHMUXOx0LXBLAlyJ4Kkjk3aSKjIuRozeSz2IdsLxMAv4POLrEnE1PafgGcEvE+bvK1lhJw3OxhhFlmEgaJcmy8ncHsH2uE9XgHYEEr4BqIrwewasIb/MYwETUxwt+7yNY9DAmm+H7bee9Ki0ybq5zWyF5HXBhgfETge8Ab+tzvqZHeH8IPAp4P76OeqJaDsbq634Zf6OYsTRhwdpm1B/0mVfzfEkjwSvALhRlfwvK4W0fk4HvYqkMRfh/wMeqd6cwuzjH3egcd7NjzEbATOf2QrEcOAK4tsB3BoCTsBX1RVuzNl3wPoT5diKwM9Ym15sLLaphIvAfWLe211P8fnRg5R71hyo0JIwErxiijtJkivA2h9lYG+BXFPzemVh70RTYzTnOK3i947xCOyT3A88Gbi/4vf8EzqBYtKzprYUfGvHf9wJvAfYCfhPHnU6zCfBNLBXqoALfe2wYdwqTJXi9DXqqZF6EOZOly4JXi9ZGU0e3NUV4m8FuWCmgQwp+7/cUqxQQmj2c47yR0Huwig55eIV2aOYDz6R4/eMjsZQI74py74NsVke4mBHe8e4FV2N1Yw/F375ZVMf+wJ+x5jaeSiuPD+uOm6y0J1VoiEyXBa8ivKOpI8IrwZs+z8PE7s4Fv3ce9hrd24SkDvZ2jFmBP3ILcI1jTArdnoa4GngGxStl7IcV+z/YMdZ7Xh9H73tO7JSGXvwG+x29mWJ1jkV5BoBXYdUc3oOlWI3HNqRzzqnLWsJ0WfAqwjuaOiK8SmlImw8AZ1E8B/V84LlYy+5UGAD2dYy7lmIR6SsdYzxCu04uoz/RuynwO+A1OeO8gvdZWP3V8YgleFeT3zJ6NfB1rIveZ0jroa4LzMQWzv4T+x2P5bn1utOTR8h+KJLgjUyXBa8ivKMpW5pMEd7mMgH4KnACxRcs/Q54DvmioW52ATZ0jLus4HavcIzxCO26uRRLUSkapZwMfAvL7e1FkQfZDwAvHuffYwneIoGPh7Dj8CjgR2HcERnshl1vzmR0NZTDonizLnllC+sWvMuBO2ueM2m6LHgV4R2NFq11kwnAqfS30OwnWApESpHdIbwLXooKXs/4zYlfj3c8rgCeRPZr1158CvjvHp8VfZA9lXXzq5sgeIe4BetQ90Tgb9W6IxwcgaUWfRTYGHhqXHf+Td55VbfgVQ3eMUjwiiG0aK17DAAnY3lyRfkGdtP3/N1j8ETnuL8W3O5l/7+9+w6XpKr2Pv6dAMOQcw4HJSkIAhIEAwiKgBFQUfGqqJgRrvoqXFEwXCNeswIGLpgwgSCIKIKSlIxKkjBNzjAMk5h03j9W9+06fbp27aru2ruq+vd5nnoGutLqOn1Or969am3cN1915LnDPKRbsRt8/lVg3xOAj/R5PO/v9crAWUwcgY+V8Lrqd7NchrXDOgz/yUtkOFbAPoDdQTX674I74V0BKxEKqRX4fJU3ygmvShomGjThXctjG43wVssXyK7P7DWOTQv6Hmx++6ray2ObReQf4V2IX1mDb8Idw31YfH8ssO+XgDf1PFbkg+wW2MQknfegOia8YL8PPwG2Bo5D7yuhrRY7gARXh4ZNyF8uNqhW4PNVnhJe6Rgk4f1/2FelWTTCWx3vwH5ueSwADsVqfatsEyyhynI1xW5AusxjmxcXOG5IT2K119/Jud8UrKY3mdAX/SB7AN0JSupU0tDPAuCzWO34D6n2h0EpR9UmndB02T1GOeFVScNERRPe/fBPgJTwVsNbsLvO87gX+1Dzi+GHM3T7eW7314LHv8Rjm+3x+9YjpiXA+4EjyJf4z8AmJdk/8f9FHYv1/Y317U/WCO+0nMd7APswuRPw50IRSV2pJVnFjXLCqxHeiYp0aXgm8DP8X0cqaYjvg1gz9+k59rkSeB52p38d7J+9CVA8IbmY7JtBptC/hVIVnYLd+PNojn1WxFrYvZbBEt4p2OsxlqyE9wKKTXV7A7AP8GpsulxpPiW8UlnrYm9aWmz5Vs7rtxLWkzTPOap4N/8oOYr8r4s/EndSgLxmYN/eZD2vBdiNJEVd43GOmIlcEdtg9b15Xh+LsMktYv/9Krr8T8Y1uae93Q3Avl5XcbLlgA9hM97Ffr5aylmW4f7gd0qEmDZwxCMjZkXi/5JUaTk15/X7VYFz+NzdLuV4J/l/XhcyWFIYw4H4PbfzBzzP5zzO8Qj5vxKPbSvgIeL/PQq1dGqI08zu2f5cik8dvSbwNexDQuznrWW4S1a/2wsCx7OA8DfJScUtIf4vSlWWX+W4bscOcJ66JQBNcCD5X+vXMfhkJKHNxGZ983l+HxjwXHt4nue4Ac8Tw87YRCKx/yaFWPq1WUta2mefxdg3YkVrtLfE2rLFfu5ahrf8DbdbA8dza0Y8MoJ6P72P8uI74nUA/d8EfJeq9EwcFdvh9xV/cnmIak6c4LIGcCl+z28Zgz+/qfiPhJ5I/UZbXk/8v0khliMc12DljH2fwBLmovcm7I19sIx9DbQMvpyB2/zA8fwhIx4ZQZ36LC2WLGTZisE/JPhM9yrDsRpwG/l+Psuoz81WHVsCt+D/HPNONpHmpBznPJPBe12H9i3i/10qeznU8fw39DzGHfSfLtnHVKwX9v0VuBZaii9f7v3BJsS4X+gkRzwyoup8s8Wwl+szmRE3xAAAIABJREFUrtUqQ7pe62WcR4bnDPL/fL4RJdLiDib/h7Cjh3TufXKe92asXVldzMQ6DAzj78tfCP+1rs9yoOP5b53zWH/FupkUsTLwGcKPBGoZzuIqkXpehHiOccQzska5LRmoF2+Sq15zCnAa8CzHNr59PNWaLIw3Y19L5/XQsAMpyarYnc+/It9sS8uAnw8phouwkTlf22At3j5KPWrZx7DypWF4EHgF8PiQjjcsrrZkq+Y81guxn+/pwMY5952L1XtvBfwYS1qkPlwtyTYLFkVXK8I5peIuJP4nw6osrkTnUxn7XoL/17s+M2DJYNbGeqoWfS38nvxv2CEdQvFypPOGHMuXCsZxNbD7kGMZlmlYC7thjjae1j72XlSrS8EOjuuQdwQ/uczHRmyLtvTbBfu7Gvv6aBn8dXR0hHie74hHRpTulO0u81Ku0auwUbG0/e7ByhRO9DzPs1POI8PzfQZ/PcxhsBtyyrAn9rXxIM/r4CHHlPdr7+SyDJu5zvXNSWgvxK/HcN7l+4lzvKOE4xddNndci9cO4fj3A4dT/NvUQ4A7I10bLf7LGmk/QKzXc+h41INXJjmd+L8oVVmWMfmP8jbAk459FtCtWftvz/PsmPrTkGHYnsG6aPQud2IJSqzEdwrWGWQY38bch00CMGwXDRjXUuDXwItKiM3XC7DR77L+vny753xfKfFceZa1HdfkP4Z4nuuwrgxFzMDKYFx/i7XEW7Jm6/tN4HjUg1f6+g7xf1mqtCTreFcl+873tyS2P97zHLul/TBkKH5LOa+NB7CvaEOVpGyJ1TTeMcTn8KmSYj1kiDHeBHycMNd5LeC9lDOi27t8tefcUynvtZpncX2Q+0AJ5zsbq9MtYh3sPUv946u1/NP1Q8PKl0LGc0tGPDKivkj8X5YqLZ2vQaYA52Rs2zsl5zGe54g5itV0z8FdfjKs5Vpshqq9Gd60w+sAr8QSoxtLiHlB+xxlmAbMKiHmm7GuGa/HbiAb1CrY79+x2Kj04hJiTls+3yeelbDuMKFi6F0WZlyvQSbYcS2LgK9jM68V8Wyszj7WddMycTnX/ePikcDxDDqLZGNNjx1AZOrSMFGnT+insTuq01zI5BmKFnmewzXfuAzmQ4T5KmvH9nIclmDfgbWcuhf74z6v/fhy2GjUbCzhXIb9zVkZG13cEHgG9ga+Uckx/287tjIsxT4Afn3Ix92mvXyw/f9zsDZhd2NdDzrXdRy71itjHSuWYNd6+fb/r4fVqm5MvK86+3VxmYd9yLkSWD9sOED2V9F5uzT4Wg44EvuG7DNYv+PFOfa/CdgfeDlWGrLtsAOsuSewa/QI9k3Chtg1KmvSo7sc62biLpspQyvw+aQmPkT8T4dVWnbCbtRwjRLeSf8pNX2//nP1vZTiVmF0poPNuyzGfXPSMMzEf+a1UVyOdVy70yLFdIcjJrC64xBx/Bt4TUYsaaYB7wEeDhRrVZf52M9rV/p/qFse2A9rYzjMexzGgY/1/cmYQW5qLbp83BHPSFMfXknaDXvzSRsFmo/9YX6szzqN8Mb1WmDF2EFU1GlYyUGZFuCebWnUufp0x3rdxhrh7bUlNhPfReS/qXcp8D2s5vtL+PdDb5JOXfT7sW8LxvtsswibbvcQrOVb1kRLebhGeDcb4nl8tSKcsxZGvaThfOwrNTHH4p7+9O3AP1LWaeKJuIbdbqspnsZKdEL4NtZzc8NA56sT19+HYdWB51WVhLdjL+wGp9Oxv8V5JjWZg400fg+7N+V1ww6uoj4BfC7nPtdiPbBPxT21tC9NOiFSQ+eT/jVJv5tOkt7o2De5vLWMwEfc8thMTbG/VqziEnrU9Z1DjL1Jy7sc12zQ3spFl3McMcHg7eYGWeZinW+Kjn7vSXe0s6nLcQWvTcdUhtMyzHX/wWdLvgb9lhj18LUw6iUN4uc84L8yttEIbzw7E2+UrMoewd5wQvoR6d+CjDJXyVOs125WSZtruvWyrYS10fs3NkiQ92bDy7AStcOwyYGa5nfYDX+DWIb1Ws6q5XZZjLVsTLPpAMcuYiH1mR4+OCW8kuXfwJuwPw4uquGNZ5fYAVTUx7Fm/SEtpdtVQbpUw1vMRthX71cBL8657zjwE+zGqeOwUeMmWAi8b0jHmot1zCjqHtzvjZsNcOwi7sJ+7tKHEl5xeQq7Sc0naVDCG892sQOooEuw0dYY/oq1QZMu1fAOZmfgYuzmtryTkizAvunYCvgh2YMXVXcawx21Pg+r6y3CdcMahE94W4HPVytKeCXNOPZ12M2e26ukIZ4tYwdQMQuxmtGYIx0fRl8tJmmEdzheg03M8lVg9Zz7PoBNE74zVp9cV2V8mDyt4H6uhHca5fcX79UKfL5aUcIraY7H2r340ghvPKH/qFbdJ7CJMGJ6DOuPKqaKI7yuGt5plDdRwaCWx7qB3I59HZ+329L1wEuAV2Mla3UyF/h7Cce9sOB+roR3Q8J3wmoFPl+tKOGVfs4k/w0BGuGNp99EIKPqQmz0qwrOAn4QO4iKSPtAPBVYIWQgCa4R3iqO7vZaC5vd71/AqwrsfzZWDnUU8PgQ4yrTzVid/LDdUvC4VevBOyvCOWtDCa/0uhG7czXv18Ea4Y0nVsJQNQ9jZThVumnjSGya01GX9oE4ZneRuie8HVsDv8U+7O2Qc9/FWNK8ZfvfPFMcx9Bv0qNhWIJNSZyXevDWyKhPPDEDeE7sICpkKfY1V5G7eTXCKzEtBd4APBg7kB7zsUlBriRum6vY0v4+xJwdsCkJb8dLsJuvTsXaSOb5XXgcG+n9Nta7+tXDDm5IppV47NnA2jn3qdoIbyvCOaUmxojfPLtKy7sHuJabeZ7j5AHOIf09QvzXTuzlqIGvYrlejd0dH/s6xVq2Sbkuz4gY0+4pMQHsUYFrNsjyFNaKrGgd8t7AdRV4Hr3Lvwo+Hx+35IxlGe5vLE/KebxBl/mDXoCmG/WShqb0JRyWQa6H7wivShqGr6yv+eriZOBrsYPI8FusL/CoUklDWCtjU2r/GyvzyTtxxUVYN4d34J5YIbStKe81s17O7R/E/b4XetKJrBZpI2/UE955sQOomJUH2Ne3hlclDcPXxJmUfJ3D8JrQl+1LwLdiBxFJ2t8HJbzl2hg4Hets8IKc+y7D+vZuhfXxXTDc0AqZDryshOOOkb/NWytj/WaFIimuFfh8tTPqCe8Cyrnjs64GefPRCG88sVtwxXIxVrdbp9/hI7EEZNSohjeuXbDJWH6FlZHkMRcrj9gK+DH29XlMg5TepSnS5UKTTtTMqCe8oFHeJI3w1tP1sQOI4FLglVRj1CmPceDt2JSvo6RqJQ3juEu4mnqD4cFY15AvA6vl3Pde4C3AbtjvXyz7AS8a4vGmAe8vsJ8r4V2H8B/mWoHPVztKeJXwJg3y5rMYv0/+GuEdvstiBxDYhcD+1LcGfynW+u+U2IEEVLWEdx7uKXabNsKbNAP4CDZxxfvJ363pKuCFwOuI1/f1FAYboEl6LzZ6nVfLsS706C4o4c2khLe+b5plGPQPiM8or0Z4h+9m4L7YQQTyS+BA6v97uww4gvwTvNTROOl/GzStcDxrYzXl/8B+p/L6FfAs4GNkX89h2wo4g8HfT3YCvlhwX9cI71jBYw6iFeGctaKEt/5vnMM0aMLrU8erEd5ynBk7gAC+jNXs+taL18EnsdHehbEDKZFrMoNYI7xKeLueBfwOuACbeS2Pp7GbMbcAvkvYevoDgPOANQvuvwvwB4p/6FIP3ppRwquEN2nQNx+N8MbT5Buh5mK1g/+P+DfMlOF07CvipnbbcH1AiZXwPpWxvqk1vC4vxe4HOJn8LboewbqlbA+cP+S4XPYB/gm8Ef/Wa8sBHwb+Sv6JJpJajnWhE94FwEOBz1k7SnhVw5ukEd76uhK4OnYQJbgP2BO7O7zJrgZ2pZk/Q9ffBZU0VMs04F3AbcCx5J+2/Casvn5/bJr6EDYEfopNHPFf2E11yQ9Sa2IJ6I7AJ7Da5a8w2JTsj+Ke6EEdGqSSfkn82WOqslwy4LW80+Mctw94Dkn3WuK/hoa5XANsNNQrVH0z6bZ+aspyr+P5fiVSTL9xxATWhSD2davC0sJGT4uYBrwHeDhS7POwUqEyjp31wfSGwM/1vIx4BI3wgkoakkKM8KqkoTxnMviHlqr4ITayOyo343UswGbGOoLmTBVaxZIGjfD62QwbPb0CeH7OfZcC38Pqe79E+Nr7FSnvG8VWxvrNSjpvmlbg89WSEt7sWq5REqJLg0oayvUO6v0h7nHgUOx5NPlGriynAM+lGR9gXH8XVMNbD7sDl2OdEcZy7jsH6+TwLOwb1SZw3bC2Gvl7HA+qFfh8taSEVwlv0qBvPhrhje827AYvV4/RqvolsC32pir2s3wx8E7spqC6Ug1vc7weq5X9Ivmv0az2/i/AevnWWcuxLvToLijh9aKEVzetJWmEtxnOAt4GLIkch69/APtib4YPRo6lasaBH2BfC3+Wen5Ar2PCqxHedDOwjim3YTW603Lufxl2Y9lh1LcziVqS1ZAS3np//TtsGuFtjtOxZvKPxQ7E4V9Y+cJzsdnTJN0c4Djs6+RPUa8WRHWr4Z2Jta4St3Wx3rs3YNP95jGOTa+9Nfa6rtvAkyadqCElvEp4k6Zif+yL8hnhnUb+EQEp5gKsL2aVJqVYht1RvD8W2xnYm5/4eRz4NLApdvf8BYRt9l9EFRNe10i5Rnfz2RbrvXt++7/zWIB9c7EldqNqXUqxWo51Y4Fi6JiPdcKQDEp46/kVYZkGKWvwvQtXZQ3h3A8cBOwNXBQphnGsT/BHsETtQOzNUYlucYuAn2Mjaxtgdb5nAk8GjsPnxkLXB+EqljSofreY/bDR3u8C6+Tc9wHsRtWdifd3ytds3L9noUsaXKPNIhMcQPxeh1Vaxga4lr/wPMfqA5xDBvMc4ETsj2RZr6FlWAP6U7A6vbyzNklx07FZ247HykTmMNyf7V3Az7DazWfi10fX1fO2zNeha9nLEdNOkWJq0vIk1pmh6ODGq4BbK/A8+i3XZ8R+deB41IPX0/TYAVSAShomGmSE16ekATTCG9M/sWk1Pww8G+sCsCuwA7AV+b5iXoJNKjALe3O6GRvhuY7sm4KkHEuwVmaddmZTsa+LtwO2ATYHNsbqL9fEvr6f0d5uCfYV8xxsJqkHgLuxCWVuwn62vd0ifH6Xq1jSoBHecq0KfAH7YPRx8ndeORv4PTZd8Sex12pVtDLWbxYiiIRW4PPVlhJeJby9BnkD8i1p0I1r1XBTe/lu4rG1gfWBtbAPPyvQTYYWYr8vs7HE52HqU3M3qpZhH0ZuLen4dU14VcMbxhhWenMkcDRW2uRrMfB17AbcT2LJbxVuJnSVEKyE/Q0NqRX4fLWlhFcJby+N8I62R9uLiA+fD69pCe9U7ANVDBrhDWsP4G9Y8vtx7JsDX48DR7X/PWH4oeXWcqwLPboL9g2beNBNa0p4e4W4aU0jvCLN4PPhNe2DcKwb1kAJbwxTsM4itwKfI/97zYZDj6gYtSSrKSW8Snh7DfIVo0Z4RUbLICUNscoZOrXKaZTwlmsF4FjgduBd+OchY2UFlFPLsS7GCG8rwjlrSQmvEt5eaksmIr4GKWmoYv0uqIY3lPWAk7GbXPf12H7zcsPx1nKsGwsUQ8c86j3teFBKeO2mDten/VETYoRXJQ0izVDHEd6sDiIa4Q1re+CP2E1paaYQZ/S011NYLXGa0DGqB28OSniNJp/o0giviPgapIZXCa8kzXes24BqvG9kJZhjIYJIaAU+X60p4TV1m8e7TBrhFRFfg5Q0VHGWNVDCG4ur20BVyhmyEl714K0wJbxGdbxdGuEVEV91LGlQDW811SHhbTnWrUD4WSVbgc9Xa0p4jRLerhB9eDXCK9IMdUx4NcJbPYuxWRvTjAWKI0vLsW4zrNY4pFbg89WaEl6jGt6uEDOtaYRXpBnq2KVBCW/13I171sY6jPCqJVnFKeE1GuHt0kxrIuKrjhNPKOGtnqzZwuqQ8I4FiiGpFeGctaWE1yjh7QoxwquSBpFmGKSkIVbCqxre6slKeMdCBOGh5Vg3FiiGDvXgzUkJr1FJQ5dGeEXEV9NKGqYw2N9AKcaV8E4DNgkViMNc4FHH+rFAcXS0Ap+v9pTwGo3wdoXo0qARXpFmaNpNa6sQ/sYjcSe8mwDTQwXioB68NaeE12iEtytEH16N8Io0Q9NGeFW/G0cdWpIp4a05JbxGE090aYRXRHxMx+89pGozrbkGOFS/G4cr4R0LFUSGlmPdDGD9QHF0tAKfr/aU8BqVNHRphFdEfPj+HlftpjWN8FbLPOBhx/qqjPC2HOs2RT14K08Jr1HC2zUNmzGmCPXhFRkdgya8KmkQyE7c6pDwjgWKIakV4Zy1poTXqIZ3oqJlDZppTWR0+P4ea4RXXFoZ68cCxOCj5Vg3FiiGpFaEc9aaEl6jGt6Jio68aIRXZHTUdYRXNbzVokkn8stqkSZ9KOE1GuGdSCO8IpLFN+Gt2k1rGuGtFlfCuzywYahAHLImeQg9rXBWxwjpQwmvUQ3vRBrhFZEsdSxpWAAscaxXwhueK+HdjGr0Rc5KMEOPQrcCn68RlPAajfBOpBFeEclSx5IG1+guKOGNoQ49eFsZ68cCxJDUCny+RlDCazTCO1HZCa9GeEXqz+f3eBnpI6oxEt6swQ3V8IZX94R3eWCDQHF0tAKfrxGU8BolvBMVfSNyvbklaYRXpP4GmWVtKnE++GqEt1qeAJ50rB8LFEeWlmNdjLKLrBv9pA8lvGYZVtslZpDZ1nxGeTXCK1J/Pr/HdbphDZTwhqYODcW0Ipyz9pTwdqmOt2uQNyOfG9eU8IrU3yAjvEp4BZTwFtWKcM7aU8LbpbKGrrJHeFXSIFJ/Ph9cq5bwqoa3WrIS3rEQQXhoOdaNBYqh4yngscDnbAQlvF1KeLsGSXg1wisyGuqY8GqEt1pcCe9KwLqhAnHI6sE7FiiODvXgLUgJb5dKGroGeTPSCK/IaFBJgwzKlfCOhQoiQ1aCORYiiIRW4PM1hhLeLiW8XRrhFZEsumlNBlWHhLeVsX4sQAxJrcDnawwlvF3zYgdQIRrhFZEsdSxpcA1sLIc+jIc0jjt5q8MNa+rBWyNKeLtUw9ulEV4RydK0kgaN7ob1ILDQsb4OCW+MHrytwOdrDCW8XSpp6FIfXhHJUscRXiW81VGXlmRVK7toRThnIyjh7VLC21V2H96pwLQBziEi8Q1Sw7viMAPJQQlvdTShJdlmoYJIaEU4ZyMo4e1SSUNX2SO8oFFekbqrY0mDa2BDPXjDqssIb8uxLnSM6sE7ACW8XUp4u8oe4QXduCZSdyppkEG4Et7V20tsc4FHHetDJ7ytwOdrFCW8XSpp6NIIr4hkGSThVUmDVK02tp9WxvqxADEktQKfr1GU8HYp4e3SCK+IZKljSYMS3upwJbxVKWeoWp1xK/D5GkUJb5dKGrqmU3wEViO8IqOhbhNPLMPdb101vOEsAe5xrK9KwttyrFsBWD9QHB2twOdrFCW8XUp4Jypa1uA7wquEV6Te6lbDOxeb7CCNRnjDuRdY6lg/FiiOLK4RXvXgrRklvF1KeCcq+obkO8KrkgaReqtbSYOmFa4OdWgophXhnI2hhLdLNbwTaYRXRFzqNsKrhLc66pLwVu3GulaEczaGEt4ujfBOpBFeEXGpW8KbNaihGt5wqnYzWJqWY13opHwO8HjgczaKEt4ujfBOpBFeEXHx+dBapZnWNMJbHa6Edx3idfFImt1e0owFiqPjrsDnaxwlvF3zcRfRj5qiCa9GeEVGQ91GeJXwVkcdWpK1MtaPBYghqRX4fI2jhHciV8uaUVP0DUkjvCKjoW4Jb9a3eEp4w6labWw/rYz1mmWtZpTwTqQ63q6yR3iV8IrUW9O6NKiGN4yFwIOO9VUZ4XUl5SthpRchtQKfr3GU8E6khLer7BFelTSI1FvREd4ZwLQhx+JDJQ3V0MLdD7kOCe9mwaLoakU4Z6NMjx1AxejGta6yR3h3APYteA4Ric/nb0S/vwdVnFYYNMIbSl1akrUc62LEmHXdJIMS3ok0wttVdsJ7dHsRkebqN8Ibo0MDuAc0ViLOqPMoqktLsqrdWNeKcM5GUUnDRBrh7Sq7pEFEmq/f34OiH6YH5Rrh1ehuOK5EcgpxygX6aTnWhU54nwSeCHzOxlHCO5FGeLvKHuEVkebrl/BWsaRB9bvhuBLeDanGDc2P4s4HxgLF0aEevEOghHcijfB2aYRXRAalhFd6qSVZfq3A52skJbwTqQ9vV9ER3q2GGoWI1FmVblpzDWgo4Q2narWx/VTtxrpW4PM1khLeiTTC21U04d1/qFGISJ31az9VxRFe1fCGkVWLWoeEdzVg9VCBtLUCn6+RlPBOpIS3q8ib0nLAPsMORERq64V9HqtiwqsR3jDq0qGh5VinDg01pYR3It201lVkhHcP9MYhIl0H9nlMCe/oqlqpQJqqlV20IpyzcZTwTqSEt6vIm5LKGUQkaR9ghZ7HYiS8i3DfUKuEN4y6JLwtx7qxQDEktSKcs3E08cREKmnoKjLC65vwfgy4ssDxY9oYON1ju28Cvyk5lio7iewbF68Ajg0QS2zfBbbJ2GYhsC71/NvzdeDIjG1WBF4CnJd4LEbCm3V9VcMbhivhnYb9nY1tnGqVNKgH75Ao4Z2ojm86Zcn7prQhsL3HdouxRKBu1/qdntudClxbYhxV5/NzfQy4uOQ4quDHwGcztlkBOAj43/LDGbpzyE54AV5B/IQ3a1phjfCG4Up4N6EaOcmD2AfRNKETXvXgHRKVNEykkoau5YDlc2z/cs/tLqN+yS7Ayzy2eQy4ruxApDZ+6rndm0uNojx/ITuRhMl1vEp4R1fLsa4O5QwQvqQhqwxEPCnhnaiOiViZ8pQ1+JYz/L5IIJFNxa/7xJ/p34ZJJhqVazQLuNxju5cA65ccSxkWA3/w2G5T4DmJ/69iSYMS3jBajnVjgWLIUrU641bg8zWWEt6JlPBO5PvGNA3Y13PbOia8OwNremz3p7IDkdr5icc204BDyw6kJOd4bveKxH9XcYRXNbzlexj35E5VGeF1JbzrEP712wp8vsZSwjuRShom8h3hfT5+jbjvBf5ZPJxofMoZQAmvTPYLYInHdm8qO5CSnAcs9dguWdZQxYRXI7zlq9rIaRq1JGsoJbwTKeGdyDfh9S1nOL9oIJH5JLyzgDvLDqQhRqWkAeBR4AKP7XYBtiw5ljI8hnXdyLI7sFb7v5XwjiYlvMW0IpyzkZTwTrQYd6/GUeP7xtTk+t2VsRHsLBrdlTQ+ZQ1Q35vXzvbYZhrdvxOq4R1NdZllzRXnWKggEloRztlISngn0yhvl88I73rAcz22W0w9k8K9sI4VWer43CSM3+KuXeyoa8LrW8fbKWuo4givanjL50okZ2CtLWNbCtzjWB+jB+/swOdsLCW8kynh7fJ5Y3o5MMVju8vxa2FUNT7lDMuAC8sOpEFGqaQBLNk9y2O7LYBdS46lDLcAt3tstx/WZ7VqCe9U4k13PEpcCe9m+L2PlO1e3DX36tBQY0p4J1Onhi6fEV7fcobzsjepJJ+E93qsllEkjW9P3rrevOYzyrsGsCc2+1poroRX5QxhVK1UoJ+q1Rm3Ap+v0ZTwTqaEtytr1GMa8FLPY9WxfndTYGuP7VTOIFkuAB7x2O5Q7PeqbvK0J6taDa8S3vItA+52rK/DDWtTsZHokFqBz9doSngnU0lDV9YI76749adVOzJJGrWSBrCvSX/hsd16+E1yUjWX4Fdr+GqsXjM01wiv6nfLdy92H0eaOiS8G5Jv9tFhaAU+X6Mp4Z1MI7xdWQmv2pHZnOuXlB2INEKTuzUswe9bnFit11TSEFddOjS0HOvUkqzmlPBOphHerqyvHl/ueZw6ljP4Tid8OZb0ir9RHOEF61fr06v5tcDMkmMpg29ZQwxKeOOqWm1smqr14M26bpKDEt7JlPB2uUZ41wGe53GMurYj03TCUoafeWyzCvDKsgMpwe/xm1UuBtXwxtWEhHcsVBAJrQjnbCwlvJOppKHLNcK7H2pHBkp4JZ8mlzXMBi6NHUQK19+gP2G9kqU8rkRyJWwAJbangfsd60Mn5bOxPrwyJEp4J9MIb5drhLfJs6uBX8L7OHBN2YE00KiWNADcDFznsd3++H3DUDVVLWtwJbxPAK8BPohm2ixL1UZO+7kL998mtSSrOSW8kynh7UpLeKfiPwJax4TXdzrhi7B2OyJ5+IzyLge8ruxASuAzzXBo8/D7Pf0WsBs2kYYMV9VqY/upWtlFK/D5Gk8J72QqaehKK2l4HrC2x/73Af8YXjjB7I2mE5by/By/BKyOk1DcTvUSxkX4t5O6Afv79qPywhk5WaUCY4HiyOJKeJcDNg4VSFsr8PkaTwnvZBrh7Uob4W16OzLfyTSU8BYzyiUNYB8E/+Kx3QuxyU/qpmplDWtg9xJs4bn9POBw7ANHHe8/qJqqlQqkcSW8mxI+X2oFPl/jKeGdTCO8XWkjvE1uRwZ+5RotbDRLpAifsoYpwBvLDqQEVUt4wbquXAsclmOfnwE7AleVEtHoqFqpQJqqlV20Ipyz0ZTwTqaEt6vfCO9a2AxrWZZQzxFQ3+mELyw7EGm0X+F3g1QduzVcjt3QWTWrAKcDp5E9qU7HncCewFfQNxNFKeEtphXhnI2mhHcyJbxd/d4UXobf6+Zy6tlSRe3IyqfEwX43zvXY7jnAdiXHMmxLgfNiB+HwFmy0dyfP7RcDHwUOAB4uK6gGa2WsHwsQgw8lvA2nhHcyJbxdyzH55i2VM1jCphFeGdRPPber4yhvFcsakrbEZr77T/z6iYPdk7AD+rCblyuRXL29xPYU8JhjvXrwSiOtjyU0WmxZI3Erp/V4AAAgAElEQVRtpgAPee63g/8lr4yp2B+9rOd2fawAa+Bqsq/fL6NFVy0zsDe2rOt1F/5JWVWsinVHiP33y2c5j3wTH0wFjsFGfmPHXodlF8e13LEC8Y1j3Tlc/hY4Hp9e3ZKTRngn0wjvRMkb13YC1vXY536y/4BUke90wn8sO5CGG48dQEU8DfzaY7tNgReUHMuwzcGvE0UV7I+1T9zXc/tlwOeBF6GvnX3McqwbCxVEBleMEH6ENyseKUAJ72Tz0WQCSck63qa3I1P9roTW5KmGq17WkLQ+cAHwBWC65z5XAM9F31i4zAUedayvww1rK+E30DNMrcDnGwlKeCcbx/owikkmvKrftVG5S8oOREbGxbib8nccgt9kKFVSp4QXrGzkY8Cl+CdiTwKvB94NLCgprjqr2shpmqqNQrcinLPxlPD2p8knujolDWsAu3tsv4R6fuXvO53wFdi3AFKcShq6lmEzr2VZC/8PnFUxC7gxdhAF7IbVUL4hxz4nY7Wq/yolovrKSnjHQgThwRWnOjQ0hBLe/pTwdnVGeF8KTPPY/grqeXepphOWWFTWUD2rYR9EfgCs6LnPjViP8pPKCqqGmjDC+4xgUXS1Ipyz8ZTw9qcb17o6XRpUzmCU8MqwXQvc4rHdq/CfMKEqzo4dwIAOB67Bv+vMAuA9wOuwDhyjTiO8xbQinLPxlPD2p4S3ay+stq3pCe9LPbaZjbXdksGopGEyn1HemcBryw5kyP4OPBI7iAFtgz2PD+bY51fYDW2XlxJRfbgSyXVIn74+pEdw37cTOuF9AutyIkOmhLc/fTLvOgz7KnUDj20foJ49an2nE74Ym0VKZNiaOgnFMvxmlKu6GcA3gN9i9dQ+7gJeDPw3o9v5p2ojp/1kjUKHLmloBT7fyFDC299dsQOokBnY3PM+1I5MpJg7seb2WfYF1is5lmGrax1vP6/Ceoy/2HP7JcB/Yd8gPVBWUBVWh4T3zoz1oeNsBT7fyPDtNzhq9LX1RL6zPL0IGwWtm2d6bvcurDZP0vmMlG8HHF9yHHW0yGObadgHL9c0qFWzQuwAhmwj4M/YyO3x+H3r82esDvhU4ICyAquYR3HfAD4WKI4srqR8bcLXzbcCn29kKOHt7wLsKyiNgOfzTPyTxzqq43TJVbRte5FitosdgDAV+ATW3eVNwN0e+zwCvAL4T2ymtrr1Vc5LHRqKaUU450hQQtffQ9T35isREQljT+y+hYM8tx8HTgT2AO4oK6iKaELCqw4NDaKEN90XYgcgIiKVtwbwa+B7WCcNH1cDO+Lfg7mOlPAWk3XdpCAlvOkuBc6IHYSIiNTCu4Gr8C/XeQrrgvN2mjmdvStxm4J1x4ltKe5yFJU0NIgSXrf3oY4NIiJlm0u9bsRLsy2W9L4nxz6nAjtTz5aOLq6Ed0OsA1Bs9wKLHetDj/A+juYBKI0SXrfHsTtqH40diIhIQz0I7AMcGTuQIZkJfBebfGKNjG07bgV2x3r9NkXVSgX6qVrZRSvw+UaKEt5sNwEvBG6PHYiISMP8DqtlvRKbfOO8uOEM1cHYqO2ents/DXwIeDX1H+1ehvvb0bFAcWRxJbxTCV920Qp8vpGihNfPLdhXTiczujPmiIgMy1+x6cpfiY3wdhwBPBklonJsCvwFOA7/99uzsWmJ/1pWUAHcj7uvdB1GeDchfOu4VuDzjRT14fU3B7sp4RvAh7EJCEI3pK6aB4D5sYMQkUpbgk3Xfgc2m9x5pLfkug84CvhRmNCCmAZ8GngJdpPafR773Nve/hNYsjyttOjK0cpYX5WE1zXLmlqSNYwS3vxuBA7Hbmh7PvZ13KbAiu31y3qW8T6PuR6vwj6+x5uFeyYdEZG8TsW+1n9N5DiGbS9sWuLDsVHcLEuBE4CLsPZlG5cW2fBl1caOhQjCgyadEBERkWjWxr4WH2/o8k3ydSlYE/htBeL2XU7IeD6zKhDjOLCBI8bPRIjnORnXTURERBrmpXS/VWricj2wTc5r8gFgYQViz1re5ngO07Eyl9gxzsf6Aaf5cYSYVnHEIyIiIg31BeInRmUu84B35LwmO2A3UseO3bW82BH/WAXiG8c6MLlcHjieunfmEBERkYKmA5cRPzkqe/kZsGqO67ISdmNf7LjTFlc7r70rEN84cG7GNX4gcDzXZMQjA1JbMhERqaolwBuAR2IHUrJDsRKH3Ty3n4dNSfxmqjcz12Ksy0SaqnRomOVYNxNYP1Qgba54ZAiU8IqISJXdC7wR61rQZJsDlwIfx11bmvRTrFPQ1WUFVcDduPvVjwWKI4tako0YJbwiIlJ1F2KJYNNNBz4PXID/COMdwB7AidhX47FljVTWYYRXCW8DKeEVEZE6+ArWj3YU7Av8A9jfc/vFwEeAA4CHywrKkxLeYloRzjlSlPCKiEhdvBO4MnYQgayD3Vj1VWB5z33Ox7o4/KmsoDzUJeF1lTRo0gkRERGJaj0sOYh9l3/I5WpgyxzXaCpwDDbyGzrWQx1xzaAavZWzWoCdGSGmlTNiEhERkRGzHTCb+IlTyOUp4C05r9PzCf/hwNVpYqvAsaQtWTf53RA4nkcz4hEREZERtTfwNPGTp9DL6eQbDVwd+GXA+NZ1xLJfBa7fOPCLjGs2J3A8Veqy0Viq4RURkTq6CBvxdLXAaqLDgOuAnT23nw28Dng3sKCsoNrm4b5pbqzk8/ua5Vi3NuGn+G0FPt9IUsIrIiJ19Qvgg7GDiGALbOrbD+Pfs/dkYBfgxrKCIjtx0w1r/bUinHPkKOEVEZE6+w5wbOwgIlgea9V2Lu4ygqQbsaT3pJJico2cQnUSXlecaknWUEp4RUSk7j4PfDZ2EJHsj91kta/n9guA92BlDrOHHEtWwjs25PMV5YpTI7wiIiJSaV8g/g1RsZZl7ec/Pcf12gwrjRhWDEdnnO/hClynpbj7Gp8SIabtMq6biIiIyASjnPSOA38j39fy04H/xhLBQc/9Gsd5VqrAtRkH7s64Hn+KENNKGTGJiIiITPJR4ky6UJXlSdwTQPSzD3D/gOfdwXH8bStwXcaBizOuw52B43kkIx4RERGRVDEmXaja8kPyjR6uA5w3wPlWdRz7FRW4HuPAjxwxTif8B6WrHPHIEOmmNRERaaIrgOcCv44dSERvxyY1cI28Jj0CHAh8BEv88ngCm7AhTVU6NLhakm1CvhroYWgFPt/IUsIrIiJNNRs4BHgvsDByLLFsA/wdONJz+3HgRGAP4I4c55mVsX4sx7HK5IpTLckaTAmviIg03feAXYGbYgcSyQzg68DZwFqe+1wN7Aj81HP7rIS3KiO8rjifGSyKrlaEc44kJbwiIjIK/olNuvCD2IFE9EqsZ+9ents/BbwZK42Yl7FtXRJeV0mDRnhFRESkMQ7FOhnEvoEq1rIU+AwwLcc12xq43nHM92XsP7sCz3s+7qmYfx4hpm0zrpuIiIhIYc8AriR+EhZzuRTYNMc1mwF8I+VY+zv2W70Cz3Wc7JKWGK8H9eAVERGRUi0HfBmbpSx2MhZreQI4OOd1exXwaM9xtnFsv2MFnuc4cG7G83okcDzqwSsiIiLBvJxqTHsbczkJmJnjmm0M/KW97zJgBce2B1Xg+Y0D33TEuEqEeNSDNyDdtCYiIqPufKxX7YWxA4noCCwB285z+3uBlwAnAPfhbvs2NlBkwzPLse4ZwaLoakU458hSwisiIgIPAC8DPgEsiRxLLNtidazv8dx+KXA8sHfGdlXp0OBKeGPE6IpHhkwJr4iIiFkGfA54MXB35FhimQl8F5uhbg3PfW7PWF+VhNfVkkwjvA2nhFdERGSiy7FpiX8TO5CIDsLakL1gCMcaG8IxhkElDSIiIiJ9vA9YQPwbrmItS4BPMtgA2dwKPI9HM2I8N0JMz/a8fiIiIiKl2x64mfhJW8zlYmCjAtdu3QrEPk52R4SbIsS0ot8lFBEREQljJeCHxE/cYi6PYj1489i1AnGPA2c4YpxC+FH8h/0voQyDanhFRESyzQMOB94MPBU5lljWAn6L9bOd4blPHW5Y2xB3H+EytAKfb+Qp4RUREfH3U2zmsKtjBxLRB7D2Za7Z1TqqkvDOcqzTDWsjQAmviIhIPncAewBfxb6eHkXbA9cA78jYbqz8ULyoJdmIU8IrIiKS32Lgw8ArgEcixxLLisD3gZ8Dq6VsU5URXiW8I04Jr4iISHHnYT17L4odSERvAK4Ddu+zrgoJ71LcE4ko4RURERHxMJXutMSxOxLEWhYDH8e6HtD+9+kKxOWq3wW4LEJM6sErIiIitfUCbDQxdpIXc/kjsAHWtzd2LOPAhc6fGDwQISb14BUREZFaWxM4k/iJXszlYeDTFYhjHDjF8bOaGSGehxzxiIiIiNTKB4CFxE/4Rn05xvEz2jZCPH93xCMl0U1rIiIi5fgWsBtwa+xARtwsx7oYN9W1Ipxz5CnhFRERKc8NwM7AqZHjGGWulmTPDBZFVyvCOUeeEl4REZFyzQPeDhzG6E5LHJN68IoSXhERkUB+AuyEzVAmYcwBHnWsV8I7IpTwioiIhHM7Ni3x/2A3MEm5XPW7oIRXREREpFQHYtMSx+5i0OTlzIyfwfwIMc3MiElKoBFeERGROM4FdgAujhxHk7nqdzcgfPL5MLAg8DkFJbwiIiIx3Q/sA3wKWBo5libSDWsCKOEVERGJbRk2K9newL2RY2katSQTQAmviIhIVVyClTicHTuQBnHdtBZjhDfrJjopiRJeERGR6ngceDVwJPB05FjqbpzqJbytCOcUlPCKiIhU0TeB3YF/xw6kxu7H/aFB0wqPECW8IiIi1XQ9Ni3xabEDqSlX/S6ohnekKOEVERGprrnAW4H/aP+3+HMlvDOB9UMFknBXhHMKSnhFRETq4HRsWuJrYwdSI1ktyaaECqTtIdSDNxolvCIiIvVwG/B84OuxA6kJ9eCV/6OEV0REpD4WAUcBrwIeixxL1Snhlf+jhFdERKR+zsF69v41diAVpoRX/o8SXhERkXq6D3gJcAKalrjXfOBBx3olvCNGCa+IiEh9LQWOB/bBEmAxWTOaqSXZiFHCKyIiUn9/wUoczokdSEW4yhmmAGOB4khqRTintCnhFRERaYbHsJvZjsJubhtlroR3A6wPb0jjKOGNSgmviIhIs3wda192W+xAIqraDWsPAQsjnFfalPCKiIg0z7XYRBWnxw4kElfCq/rdEaSEV0REpJnmYlMSvxWYFzmW0Ko2wtuKcE5JUMIrIiLSbKdho73Xxw4kIFeXBiW8I0gJr4iISPP9G9gd+GbsQAJ4EFjgWK+ShhGkhFdERGQ0PA0cCbwaeDxyLGVylTOARnhHkhJeERGR0XI21rP3ktiBlMSV8K4ErBcqkIRWhHNKghJeERGR0XMvsDfwaWBZ5FiGrWo3rI0Dd0U4ryQo4RURERlNS4FP0bxpiauW8KoHbwUo4RURERltFwPPBc6NHMewqAevTKKEV0RERB4FXgEcTf2nJa7aCG8rwjmlhxJeERER6fgasAdwe+xACloI3O9YH2OE19UTWAJRwisiIiJJ12ATVfwkdiAFzMJuEkujEd4RpYRXREREej0FHAa8nXpNS+wqZ5gKjAWKI6kV4ZzSQwmviIiIpDkV2Bm4IXIcvlwJ7ybA8qECSWhFOKf0UMIrIiIiLrcCuwHfjh2Ih6rdsKYevBWhhFdERESyPA18AHgt1Z6WuGotyR7Erp1EpoRXREREfJ2F9ey9NHYgKaqW8LYinFP6UMIrIiIiedwD7AV8lupNS1y1koZWhHNKH0p4RUREJK+lwHHAvrj73ob0IDDfsV4jvCNMCa+IiIgUdRFW4nBe7EBwj+6CEt6RpoRXREREBvEINi3xR4DFEeNwJbxrAKuHCiShFeGc0ocSXhERERnUOHAiNi3xHZFiqNoNa6CEtzKU8IqIiMiwXA3sCPwswrmrlvCqB2+FKOEVERGRYXoKeBPwDtw3kQ1b1To0qAdvhSjhFRERkTL8EJuW+B+BzucqpYgxwntZhHOKiIiISAQrYNMSj5e4LACmOGK4qOTz91temv9SiYiIiEiddaYlLiO5vCnj3HeVdN605az8l0dEREREmmBTbFriYSeYv3Occ3lsooxQye5twFrFLo+IiIiINME0bFriYSahX3ecb+shnidruQMYK3hdRERERKRhXoJNSzyMRPNDjvMcMKRzZC2XAesOcD1EREREpIHWAX7P4MnmKx3n+OAQju9algJfApYb6EqIiIiISGNNwaYlXkTxpPPZjuN/bYDjZi3/wmaXExERERHJtAtWA5s36VwGzHQc95wCx8xaHsPKKKYP4XmLiIiIyAhZFZuWOE/yeX/GMW/KeTzX8iRwArDaEJ6riIiIiIywdwDz8EtCL3UcZwo2KcWgie7DwHHA6sN7iiIiIiIy6p6FTUuclYz+r+MYG3vs71puBI7AZosTERERERm6FYBvYnW6aUnppxz7v9ixX9qyBDgTTQ0sIiIiIgG9ALie/gnqWxz7HZ6yT1ot8AnYqLCIiIiISHBTgTdjZQbJRHVPxz6fIzvRvRA4GHVcEBEREZGKmALsA/wY65qwgWPbn9M/yb0XOBF3/15pkCmxAxAREREpaHlswoo0lwHPAO4BbgGuAS6mezOciIiIiIiIiIiIiIiIiIiIiIiIiIiIiIiIiIiIiIiIiIiIiIiIiIiIiIiIiIiIiIiIiIiIiIiIiIiIiIiIiIiIiIiIiIiIiIiIiIiIiIiIiIiIiFTbZsBngCuB2cAS4HHg78CXgGfHC62wDwDHt5cYxtvLLSXvM6qKXqu0/XTtRUREGmoa8GlgEd03/H7LUuDbwPJxwizkFrrxx6CEt1xKeEVERIZseuwASjAVOAM4uP3/DwDfAf4GzAU2Al4FHNbe9n3A5sArgGWhgxUZkl3a/y7wfFxERERq7FN0R7X+BKyest3LmDgCfESQ6AanEd5m07USERERp02AhVjCcC+wSsb2X6abYFyTeDyZdEwB3gvchJVAHJ/YbirwVuASYA6wGJiFjShv7Djv1sDXgevb+y0BngCuAI4BVu2zj6s0o1/yWzS2zYHvAXe193kEOBN4fk8cRRPeqcC7seu9CBt1vxL4ILBcYp/VsVHJcez6rJdy7P9JHP+dBeJZAfgv4AZgPjAPuBb4MO5Sl0F+hq7Xlev6fjKx/nasRr3fsdPOmbQJcCL2vOdiP+v7gF8CL8qIvZ+0D2K9+70Zu2aLgMeAs4GdUo4pIiIifZxA9w32/R7bbwx8or18PPF48k36ZCYmlse3t1kN+HPPuuQyBziwzznfCjzt2G8cuJPJSWmehLdobHsBT6bssxR4V8+18dXZ599Y8pwW11XAWon9fppY98E+x52CfbAZx5LVfkmmK55bgT844rkOWKfP/oP+DF2vq7Tre0xi3c3Aho5jZz2+O+k/587y/zyP3+GT8H465VwLgOelHFdERER6/I3um+j6Axync4x57X8vBw7BEoVnYonWee11y4DvA/sDewBHAw+21y0Edkgcd2tsJG0cGxH8dnu/3YFDgasT5z61J6bntZdWYpvnJZaOorGtCTyaOPYVwBva+/0H8E8mJilFEt7O8kesxnoPrJQk+ZzOT+z30p54er0wsf6nJcVzQc++g/wMs15XyW2S1/cjicf/AazreE4+Ce8NicdPBPbBruUx2Ghv57WzvcfxO7IS3oXYdfti+1wHMvH39XcpxxUREZEes7E3z4cHPE4yGbqEyV9tvyax/sg++28OPNVef1Hi8aMT+32+z37rMTGx6SerhrdobMcl9vszk29oXJmJSW/RhPccrKwhaV3gnsQ2e7UfnwrcnXh88579vpVY9/IA8cBgP8Os11Vym871PSrx2NXYBxPXc/JJeDu16/f1Oc4HgX+1l2Rd+6AJ7zjwoZ51G2HfHIxj7QJFRETEQ+fN8/YBj5N8k96zz/qz6L5JT0s5xvcTx+gkamsAW7SXlfvsszvFE4tBY/t74rFdU/Y7xCO+fpLXc7uUbY5IbPOtxOOfSTx+bOLxaXRHq+8n/bkOO55BfoZZr6vkNrdgPZc7/38DVqqS9Zx8Et7ka+h/cNd0Zx2/3zH77TcfmNFnv7tS9hMREZEUwx7hncPk0T/oJlq+y6E9+0/BJr04GKsd/i7WUSLZNaJowls0tscTz3lKyrHX9Yivn84+jzm22Tix3SWJx5+Bfb0+jo0wd7wksf2XcsQyaDwdRX6GWa+r5Da9NcKPkn7jXnI/n4T3dXSvaWe5HfgF9q3AZjmO35GV8P47534iIiKSIm8N7yrAF9rL5xKPd45xW8p+WRNa9C7vaO83hYl1tMllDlbHOGjCWzS2Tl1q2nMGK3MYJOH1PfY/e9ZdnFj3nPZjJyUe2zZHLIPGM8jP0Oe8vcd8JPHfv/bYz7dLw15YvXS/m++WAacBK3ocp8O3S4PvfiIiIkPTtIknLgB2a//3wdgNRS67Ah9r//eDWHuqpKUp+z2F1VI+gE1ikeXO9r8fxW7aAbvT/ltYZ4LbsZZWMPgbf9HYZgNrk14jCu4RRh9rOdYlz/tUz7ofAS9u//cbsWt3UPv/rwVuDBjPMH6Gaa+rXmdhrdZuwOpdDwJej43EDuri9jITu+lxdywJfhn2d+EtWPeEd3seL09JiYiIiAxgU7ojVvfQv8Yy6Qy6o0s/STyeNSr1l/b6JaQnTWNYErE73drFTr3iXPpPiOEzgpo1IlY0tmQbs+em7He4R3z9JEcP0479+sQ2J/esWwkbPR3HEvSXJ7btd2NemfEM8jP0uXadbe6m+4H0oMTjD2MfTNL2yzrnNlgt9iHAjn2Osz3dXtazE493fq/u7bPPNLrdHTTCKyIiEkDyJqc/kn6jT/KmpMXka8F0ZGKbb/RZvwqWmHUSlE7i0kkaHqT/iNihHue+ObFNv7v8i8aWvEHq/D7xrYlNXDFowvsnJk4w0YnppsQ2r+hzjOSNdv9o/7uI/snfsON5ZWLdID/DPAlv7za/Taz7eY79eh9/d+Kxq5hcrz0VeIhuUt+R/Nn3dst4AxOvqU9cHUp4RURECpgG/Ibum+j9WKnCPtiI5huYPPnBh3uOkfUmvSIT36h/hvUV3R04jIl9Tt+T2O/axON/wEbudgMOwG56WpxY/zjWF7bXVYltTsDKMpLbFY1tJSYmNX/BRgH3wOp8b2fiNRukD+/fsMRwD2wSh2RyeRX9b+jas89xzsoRQ9F4rmFiYjvIz3CQhHcTuu3kxoHXeu7X+/hGWMeEzuPntI+1e/vftMT6B4nHr8PKZfbEbtiby8Sb4Hzi6lDCKyIiUtBUbFanzlezact8+tco+iQmW2B3nruO39undV/cM3TdQLdbQloScGLKvoPGBjYRxQOOfZJ9b4skvC0mJty9Swsrt0jT+5wOcmzrE88twFcc8dxLd0KIjkF+hoMkvDCxB/ADTKwz9k14Ad7ExMS833I1E0titqBbVtK7nIFuWhMREYlmUyyxuwqbSnUJ1orqcmwq17RODr5J3UzgP9vHewJLIu7DEoC0Pqs7YTcdPdTe/hGs9OIIrJ72P9rHWIQlT71WBL6G1ZIuaj+nfm3YisQGlkR9CXvuT2Ojildgo8FTGCzhvQUrF/g0dqPZwnb8d2KJvKvPLFgf3s6xHqN/SUfeeMBucLwQe40sxa7tN0m/ga/oz3DQhHcaNuLc2eZ0j/3SHn8W8B1sNHte+3k8iJWzHM7kMg+wNmw/b2+3GPuAcmw7LiW8IiIiIkPwOSaONhdVJGmvus5zujl2ICIiIiJSzHTgDrqJ3fbuzZ2alvCuQPc5XRc5FhERkcppWh9eaZ73Y+ULB2GzroG1UPtHtIiqZU9gl8T/uya1EBEREZEK6r1Bai7d2dYGPWYTRnh7r8/+ccMRERERkbwewm5sm4eN7D5vCMdsUsK7ALuB7GZsVjYRERERERERERERERERERERERERERERERERKcEMbKasB7GZsxYAR0WNqDzJO/SPydh2FGa1ck2XO47N7nY78ANsKuVY8VXhhrkPYDMOHh83DBERESniM0xOdI6PGVCJks9xPvBMx7ZKeCcuS4EPRYqvCgnvKLweREREGjvxxH6J/34fcC3wcKRYQpoJnATsGzuQCrgLOKTP46sCewEfxWYo+ypwKXBNoLg6k0QsCHQ+ERERaaibGZ2Rq34jl29L2XYURvR8R1Dfmdj2pLKDqqhReD2IiIg0juvr695tbgGmAO8FbsK+3j4+sd004K3AhcDj7fWPt///Le31aee/BZiK1UjeACwCZgNnAtu1t10P+CFWZ7wYm2DhF8C2BZ/zY9gsZOPAo8A6fbbNSnAGfc79pJ2zd783A9dj1+ox4Gxgp5RjuvgmvKsntr0yZf9hvz6y4pvaPuYlwBzsdTEL+A6wseO5LId9k3E58GR7vweBc4DXt59HvxiyfldERESkgvImvCf3bHN8e5v1gL9lHO+K9nb9zn8LcErKfnOwkoP7Heu3LvCcbwH+M/H/P+mzrSvhHcZz7scn4f10yvkWkH9mNd+Ed8XEttel7D/s14crvtWwmeTSjjcHOLDP8TbCPii4YjkXK9/ojUEJr4iISA09r7206L55dx7r6Dw+r/3v5Vit5+7YDV/TmZjMXAscBuzZ/vfaxLq/MbEOuvP4UmyU7b+BFwCvxkZ6O+uXYTXF7wb2AA5mYmL43RzPOZlATQOuTjy2X8+2acnnMJ5z0YR3IXatvgi8EEvqkrH8Lv2p9+Wb8L4hse1P++xfxusjLb4pwHl0XxvfB/bHXhtHY6O1nWuV7CyxHBN/3n8GXteO9a3ArYl1X03s5/o9GcbUzSIiIhKAayQzOZJ1CbB8z/q3JtZfzsSRMbCWZ5cntnlryrHf37Pfrj3re5PRPRPr/u56cinPp5NA7QgsaT82CxvJ7Ei7LsN4zkUT3nEmd9OICYwAAATQSURBVErYCPvQMI6VCeSRFc+62Nf/cxLbHpAS17BfH2nxvSbx+JF9Yt4ceKq9/qLE429L7Pc7JpcurAM8QTeBn9GzXjW8IiIiNeab8O7ZZ/0FifW7pRz/+Ylt/tDn2HOx0bek5RPrZzM5OVkpsf7mlPP20y+B+nLi8a8kHk+7LsN4zkUT3vlMTsTAuiwUScbGcy4/dOw/7NdH8vjJ63UW3eQ+rfb3+4l9N28/dn7isWen7Hco8In2slbPOiW8IiIiNeaT8M7BbhLq9QjdpDTNFOzmoHEmtjvrHPvfKfu51k+hfzKUpd8+KwJ3th9fQvfmr7TrMoznXDThTbtWRZMx30T3Bvp3syjz9ZE8fvJ6PYh/3ONYEgt2o+M4dpNiEUp4RURkJDS1D6+Ph7B6yV6rt/91JRHjWOKzamL7pH7HzVo/zKRjPtZd4HxsxPAUrKQizTCec1FZ16qofn14x4GngXuwhNSlzNdHrzU9tklaqWe/vGUfIiIiI2WUE96lKY/PBtZuL2mm0G375Rrpi+kP2M1Yb8JGeI92bFvmc077ir5sC7EbuooK+fp4CkteHwBe5bH9nYn91mgvIiIikqLfV7ajrtOiajXsbvd+no+N3iW3r6KjsJ62ACfQvzcvDPacF7X/XbnPPtOADbwirY8yXh//av+7Lnaj4dV9lkexD6jTsRvQAG5s/7s2sE3Ksf+KlbUsJv3nLyIiIjXkU8ObVnP69sQ2lzP5hqreu/DfluPYg64vss/b6F8HmjTIc56VeHzznv2Srb/Sanjz1v5mKXIN8+w/yLVKO/6Rice/0eecq9CtyX6Y7jczH0rs9ysm3wi5K1aWMU7/zh/JGQl7u1GIiIhIxQ2S8C4HXJXY7lpsFrA92v8m+6xeSb6etDESXrDZv1wJ7yDP+QeJdddhX8nvCXwc61axjP7nrGvCO8i1Sjv+ikx8vj/D+hHvjvX2TfZwfk/Pfsleu+dh138PLBl+LLGu36QVyedxApYg75HyvEVERKRiBkl4wb6GTyYD/ZarmPx1fVUT3i2wWcvSEl4o/py3YGJP2+RyBv5TC/eqasILxa+V6/hbYB0rXMf8fJ/jbQHc5thnGXBsyvM4MWUfERERqYFBE16wkbnDgT9id9wvxr5OvgD7WrvfDX9VTXgBjiE7qSnynMF6wP4ca6+1GJvB61ishreJCS8Uv1au48/Epoe+HJswYjFwH/bBoV9P4I4VgQ9j0xk/gdVV3wf8Apvpz7Xf17COFouwWt/eNmoiIiIiIrl0Et48k4uIiIjIANSlQSSc5DTEC6NFISIiMmJGuQ+vSEh7Arsk/v+2WIGIiIiIiJSh98aw/eOGIyIiIiIyXAuwm9BuBt4ZORYREREREREREREREREREREREREREREREREREREREREREREREREREREREREREREREREREREREREREREREREREREREREREREREREREREREREREREREREREREREREREREREREREREREREREREREREREREREREREREREREREREREREREREREREREREREREREREREREREREREREREREREREREREREREREREREREREREREREREREREREREREREREREREREREREREREREREREREZFq+//0CSW2aVFXMAAAAABJRU5ErkJggg==;" vertex="1" parent="1">
          <mxGeometry x="49.2" y="970" width="220" height="220" as="geometry" />
        </mxCell>
        <mxCell id="20WILuZ4rldSZoYa5nqy-15" value="&lt;h1&gt;Through the Door&lt;br&gt;&lt;/h1&gt;&lt;p&gt;The participant uses a fictional key to open a fictional door within their realworld homespace and become immersed in a 360 fiction world.&lt;br&gt;&lt;/p&gt;" style="text;html=1;strokeColor=none;fillColor=none;spacing=5;spacingTop=-20;whiteSpace=wrap;overflow=hidden;rounded=0;" vertex="1" parent="1">
          <mxGeometry x="340" y="1000" width="330" height="120" as="geometry" />
        </mxCell>
        <mxCell id="20WILuZ4rldSZoYa5nqy-16" value="" style="shape=image;html=1;verticalAlign=top;verticalLabelPosition=bottom;labelBackgroundColor=#ffffff;imageAspect=0;aspect=fixed;image=https://cdn1.iconfinder.com/data/icons/ios-11-glyphs/30/geo_fence-128.png" vertex="1" parent="1">
          <mxGeometry x="30" y="1250" width="194" height="194" as="geometry" />
        </mxCell>
        <mxCell id="20WILuZ4rldSZoYa5nqy-17" value="&lt;h1&gt;Interieur/Exterieur&lt;br&gt;&lt;/h1&gt;&lt;p&gt;The participant&#39;s mixed reality experience continues into the open world where the narrative events provoked within the private homespace spills out into their local town where encounters with fictional objects and people persist.&lt;br&gt;&lt;/p&gt;" style="text;html=1;strokeColor=none;fillColor=none;spacing=5;spacingTop=-20;whiteSpace=wrap;overflow=hidden;rounded=0;" vertex="1" parent="1">
          <mxGeometry x="340" y="1280" width="330" height="120" as="geometry" />
        </mxCell>
      </root>
    </mxGraphModel>
  </diagram>
</mxfile>
